<?xml version="1.0" encoding="UTF-8"?>
<!DOCTYPE svg PUBLIC "-//W3C//DTD SVG 1.1//EN" "http://www.w3.org/Graphics/SVG/1.1/DTD/svg11.dtd">
<svg xmlns="http://www.w3.org/2000/svg" version="1.1" width="600px" height="600px" style="shape-rendering:geometricPrecision; text-rendering:geometricPrecision; image-rendering:optimizeQuality; fill-rule:evenodd; clip-rule:evenodd" xmlns:xlink="http://www.w3.org/1999/xlink">
<g><path style="opacity:1" fill="#55c3e0" d="M 361.5,5.5 C 445.104,24.0824 509.437,69.4157 554.5,141.5C 563.957,159.08 572.624,176.414 580.5,193.5C 581.338,193.842 581.672,194.508 581.5,195.5C 580.903,195.735 580.57,196.235 580.5,197C 590.823,226.115 596.823,255.949 598.5,286.5C 599.904,388.167 561.571,471.001 483.5,535C 424.27,579.906 357.27,601.073 282.5,598.5C 242.738,595.726 204.738,586.06 168.5,569.5C 166.181,569.008 164.181,568.008 162.5,566.5C 159.322,563.742 155.655,561.742 151.5,560.5C 130.245,549.58 111.245,535.58 94.5,518.5C 92.4309,515.427 89.7642,513.094 86.5,511.5C 40.7919,465.086 12.7919,409.419 2.5,344.5C -8.41539,246.08 19.9179,160.913 87.5,89C 163.859,16.1033 254.359,-11.3967 359,6.5C 360.07,6.47196 360.903,6.13863 361.5,5.5 Z"/></g>
<g><path style="opacity:1" fill="#80d1e8" d="M 274.5,-0.5 C 291.167,-0.5 307.833,-0.5 324.5,-0.5C 336.797,0.937852 349.131,2.93785 361.5,5.5C 360.903,6.13863 360.07,6.47196 359,6.5C 254.359,-11.3967 163.859,16.1033 87.5,89C 19.9179,160.913 -8.41539,246.08 2.5,344.5C 1.49374,337.71 0.493737,331.043 -0.5,324.5C -0.5,307.833 -0.5,291.167 -0.5,274.5C 13.2273,158.979 72.2273,75.8125 176.5,25C 207.982,11.4641 240.648,2.9641 274.5,-0.5 Z"/></g>
<g><path style="opacity:1" fill="#52c0df" d="M 313.5,30.5 C 338.681,32.478 363.348,37.1447 387.5,44.5C 390.636,44.6031 393.302,45.6031 395.5,47.5C 400.312,50.0048 405.312,52.3381 410.5,54.5C 411.192,55.0253 411.692,55.6919 412,56.5C 412.671,55.7476 413.504,55.4142 414.5,55.5C 434.367,64.1024 452.7,75.2691 469.5,89C 492.606,110.091 512.772,133.591 530,159.5C 533.101,164.702 535.934,170.035 538.5,175.5C 537.542,175.953 536.708,176.619 536,177.5C 535.691,176.234 535.191,175.067 534.5,174C 534.833,173.667 535.167,173.333 535.5,173C 534.333,172.5 533.5,171.667 533,170.5C 531.686,171.313 530.519,172.313 529.5,173.5C 527.878,171.561 526.044,171.228 524,172.5C 522.189,168.87 519.855,168.536 517,171.5C 515.445,169.854 513.779,169.521 512,170.5C 511.257,168.559 511.424,166.726 512.5,165C 510.875,164.147 510.542,163.147 511.5,162C 510.004,161.493 508.837,161.993 508,163.5C 507.346,162.304 506.846,162.304 506.5,163.5C 507.665,164.584 508.998,165.417 510.5,166C 509.584,166.374 508.75,166.874 508,167.5C 506.412,165.579 504.912,163.579 503.5,161.5C 504.665,160.416 505.998,159.583 507.5,159C 505.939,158.682 504.772,157.849 504,156.5C 496.603,164.056 494.77,163.223 498.5,154C 496.267,150.759 494.767,151.259 494,155.5C 493.346,154.304 492.846,154.304 492.5,155.5C 492.723,156.967 493.056,158.467 493.5,160C 491.007,159.683 490.341,158.349 491.5,156C 490.268,152.61 489.434,152.777 489,156.5C 487.251,155.701 485.918,156.368 485,158.5C 484.167,156.333 482.667,154.833 480.5,154C 481.956,153.577 482.456,152.744 482,151.5C 480.703,152.784 479.536,152.617 478.5,151C 479.328,150.085 480.328,149.419 481.5,149C 480.251,147.176 479.085,147.343 478,149.5C 473.396,147.009 473.896,145.676 479.5,145.5C 479.738,141.901 478.738,141.567 476.5,144.5C 475.914,144.291 475.414,143.957 475,143.5C 473.725,145.717 472.725,148.051 472,150.5C 471.696,148.559 470.863,146.893 469.5,145.5C 469.709,144.914 470.043,144.414 470.5,144C 469.322,143.033 467.989,142.533 466.5,142.5C 465.614,141.675 465.281,140.675 465.5,139.5C 466.552,139.649 467.552,139.483 468.5,139C 467.333,138.5 466.5,137.667 466,136.5C 464.191,138.345 463.357,140.678 463.5,143.5C 467.109,143.775 469.109,145.775 469.5,149.5C 468.5,150.833 467.5,152.167 466.5,153.5C 466.167,152.667 465.833,151.833 465.5,151C 468.465,148.084 467.965,145.918 464,144.5C 463.667,144.833 463.333,145.167 463,145.5C 461.907,143.651 460.574,141.984 459,140.5C 457.513,141.253 457.346,142.086 458.5,143C 456.833,143.667 455.167,143.667 453.5,143C 452.414,140.661 451.58,138.161 451,135.5C 449.513,136.253 449.346,137.086 450.5,138C 449.646,139.022 448.646,139.855 447.5,140.5C 447.94,139.047 447.274,137.881 445.5,137C 446.308,136.692 446.975,136.192 447.5,135.5C 446.753,135.264 445.92,134.93 445,134.5C 444.529,136.246 443.862,137.913 443,139.5C 441.937,138.562 440.77,137.562 439.5,136.5C 442.88,132.704 442.047,130.371 437,129.5C 435.662,130.506 434.329,131.506 433,132.5C 431.601,131.773 430.101,131.273 428.5,131C 429.191,129.933 429.691,128.766 430,127.5C 430.612,130.032 432.112,130.865 434.5,130C 432.951,128.786 431.785,127.286 431,125.5C 429.687,126.573 428.187,127.24 426.5,127.5C 424.195,126.663 421.862,126.496 419.5,127C 420.623,125.956 421.956,125.29 423.5,125C 420.463,120.58 417.963,121.08 416,126.5C 414.68,124.183 413.014,122.183 411,120.5C 407.547,121.108 404.881,119.775 403,116.5C 401.867,118.211 400.367,118.711 398.5,118C 399.167,117.667 399.833,117.333 400.5,117C 398.603,115.89 396.77,115.724 395,116.5C 393.553,114.597 391.886,112.93 390,111.5C 388.333,111.833 386.667,112.167 385,112.5C 385.077,111.262 384.911,110.262 384.5,109.5C 383.167,110.167 381.833,110.833 380.5,111.5C 380.526,109.626 380.193,107.96 379.5,106.5C 377.917,108.446 377.417,110.446 378,112.5C 377.167,111.667 376.333,110.833 375.5,110C 376.451,109.282 376.617,108.449 376,107.5C 375.085,108.328 374.419,109.328 374,110.5C 373.667,109.167 373.333,107.833 373,106.5C 372.667,106.833 372.333,107.167 372,107.5C 371.385,105.884 370.385,104.551 369,103.5C 367.04,107.446 365.04,107.446 363,103.5C 361.388,106.079 359.888,106.079 358.5,103.5C 359.902,102.158 359.569,101.324 357.5,101C 358.448,100.517 359.448,100.351 360.5,100.5C 359.463,96.2022 357.963,95.8689 356,99.5C 355.383,98.5509 355.549,97.7175 356.5,97C 355.692,96.6924 355.025,96.1924 354.5,95.5C 355.347,94.1552 356.513,93.1552 358,92.5C 358.667,91.8333 358.667,91.1667 358,90.5C 356.846,91.7433 355.512,92.7433 354,93.5C 352.612,92.4464 351.112,92.2797 349.5,93C 352.028,93.6689 352.028,94.5022 349.5,95.5C 347.865,94.6698 346.198,94.5031 344.5,95C 345.328,94.0853 346.328,93.4186 347.5,93C 347,92.5 346.5,92 346,91.5C 345,91.8333 344,92.1667 343,92.5C 341.06,90.2617 338.893,90.2617 336.5,92.5C 334.98,93.8499 334.313,95.1832 334.5,96.5C 333.77,95.0663 332.77,93.8996 331.5,93C 334.993,91.4725 335.493,89.9725 333,88.5C 331.667,89.8333 330.333,91.1667 329,92.5C 328.767,90.2199 327.934,88.2199 326.5,86.5C 325.029,87.3805 324.196,88.7139 324,90.5C 322.495,88.7017 322.328,86.8684 323.5,85C 322.022,83.8069 320.688,83.3069 319.5,83.5C 320.025,82.8076 320.692,82.3076 321.5,82C 319.892,81.342 318.725,81.842 318,83.5C 317.667,83.1667 317.333,82.8333 317,82.5C 317.019,80.8925 317.185,79.2259 317.5,77.5C 314.989,77.3012 312.822,76.9679 311,76.5C 309.716,77.5719 309.383,78.9052 310,80.5C 309.333,79.1667 308.667,79.1667 308,80.5C 307.426,78.508 306.259,77.008 304.5,76C 305.956,75.5774 306.456,74.7441 306,73.5C 303.753,75.1548 301.42,75.4881 299,74.5C 297.915,76.6574 296.749,76.8241 295.5,75C 296.051,73.6015 296.384,72.2682 296.5,71C 294.613,70.8374 293.113,71.6707 292,73.5C 289.904,72.2845 290.071,71.4512 292.5,71C 290.536,69.2056 289.036,69.7056 288,72.5C 287.71,70.9559 287.044,69.6226 286,68.5C 286.046,70.3126 285.88,71.9793 285.5,73.5C 281.387,72.3263 280.553,69.9929 283,66.5C 286.056,67.6231 286.222,66.9565 283.5,64.5C 282.201,65.09 281.368,66.09 281,67.5C 280.289,65.6332 280.789,64.1332 282.5,63C 280.833,62.3333 279.167,62.3333 277.5,63C 278.833,63.6667 278.833,64.3333 277.5,65C 279.929,65.4512 280.096,66.2845 278,67.5C 276.921,65.6063 275.587,65.273 274,66.5C 273.37,64.0966 274.203,62.2633 276.5,61C 276.619,59.7188 276.119,58.5521 275,57.5C 273.396,58.6868 272.229,60.6868 271.5,63.5C 270.201,62.91 269.368,61.91 269,60.5C 268.333,61.1667 267.667,61.8333 267,62.5C 264.86,61.2718 263.193,59.6051 262,57.5C 260.415,58.3757 259.415,59.7091 259,61.5C 255.985,59.4839 255.818,57.3172 258.5,55C 257.551,54.3828 256.718,54.5494 256,55.5C 255.333,54.1667 254.333,53.1667 253,52.5C 251.69,54.1322 251.19,55.7988 251.5,57.5C 250.749,56.624 250.249,55.624 250,54.5C 249.549,56.9288 248.715,57.0955 247.5,55C 248.622,53.3866 248.122,52.2199 246,51.5C 245.692,52.3081 245.192,52.9747 244.5,53.5C 243.391,52.4104 242.391,52.4104 241.5,53.5C 242.952,56.7575 242.286,57.2575 239.5,55C 239.957,54.586 240.291,54.086 240.5,53.5C 239.198,51.7988 237.531,50.6322 235.5,50C 236.833,49.3333 236.833,48.6667 235.5,48C 233.583,48.0275 231.916,48.8608 230.5,50.5C 229.808,49.9747 229.308,49.3081 229,48.5C 228.667,48.8333 228.333,49.1667 228,49.5C 227.251,48.365 227.417,47.365 228.5,46.5C 231.167,45.1667 233.833,45.1667 236.5,46.5C 237.696,46.1543 237.696,45.6543 236.5,45C 234.186,43.6017 231.853,43.435 229.5,44.5C 229.167,43.8333 228.833,43.1667 228.5,42.5C 226.684,44.6519 224.684,44.6519 222.5,42.5C 241.537,36.1527 261.204,32.3193 281.5,31C 292.161,30.5002 302.828,30.3335 313.5,30.5 Z"/></g>
<g><path style="opacity:1" fill="#51a1b6" d="M 313.5,30.5 C 313.5,30.1667 313.5,29.8333 313.5,29.5C 339.142,30.4279 363.808,35.4279 387.5,44.5C 363.348,37.1447 338.681,32.478 313.5,30.5 Z"/></g>
<g><path style="opacity:1" fill="#4792a7" d="M 313.5,29.5 C 313.5,29.8333 313.5,30.1667 313.5,30.5C 302.828,30.3335 292.161,30.5002 281.5,31C 261.204,32.3193 241.537,36.1527 222.5,42.5C 219.659,42.5597 216.993,43.2264 214.5,44.5C 214.158,43.6618 213.492,43.3284 212.5,43.5C 245.022,32.1399 278.689,27.4732 313.5,29.5 Z"/></g>
<g><path style="opacity:1" fill="#4fbdde" d="M 222.5,42.5 C 224.684,44.6519 226.684,44.6519 228.5,42.5C 228.833,43.1667 229.167,43.8333 229.5,44.5C 231.853,43.435 234.186,43.6017 236.5,45C 237.696,45.6543 237.696,46.1543 236.5,46.5C 233.833,45.1667 231.167,45.1667 228.5,46.5C 227.417,47.365 227.251,48.365 228,49.5C 228.333,49.1667 228.667,48.8333 229,48.5C 229.308,49.3081 229.808,49.9747 230.5,50.5C 231.916,48.8608 233.583,48.0275 235.5,48C 236.833,48.6667 236.833,49.3333 235.5,50C 237.531,50.6322 239.198,51.7988 240.5,53.5C 240.291,54.086 239.957,54.586 239.5,55C 242.286,57.2575 242.952,56.7575 241.5,53.5C 242.391,52.4104 243.391,52.4104 244.5,53.5C 245.192,52.9747 245.692,52.3081 246,51.5C 248.122,52.2199 248.622,53.3866 247.5,55C 248.715,57.0955 249.549,56.9288 250,54.5C 250.249,55.624 250.749,56.624 251.5,57.5C 251.19,55.7988 251.69,54.1322 253,52.5C 254.333,53.1667 255.333,54.1667 256,55.5C 256.718,54.5494 257.551,54.3828 258.5,55C 255.818,57.3172 255.985,59.4839 259,61.5C 259.415,59.7091 260.415,58.3757 262,57.5C 263.193,59.6051 264.86,61.2718 267,62.5C 267.667,61.8333 268.333,61.1667 269,60.5C 269.368,61.91 270.201,62.91 271.5,63.5C 272.229,60.6868 273.396,58.6868 275,57.5C 276.119,58.5521 276.619,59.7188 276.5,61C 274.203,62.2633 273.37,64.0966 274,66.5C 275.587,65.273 276.921,65.6063 278,67.5C 280.096,66.2845 279.929,65.4512 277.5,65C 278.833,64.3333 278.833,63.6667 277.5,63C 279.167,62.3333 280.833,62.3333 282.5,63C 280.789,64.1332 280.289,65.6332 281,67.5C 281.368,66.09 282.201,65.09 283.5,64.5C 286.222,66.9565 286.056,67.6231 283,66.5C 280.553,69.9929 281.387,72.3263 285.5,73.5C 285.88,71.9793 286.046,70.3126 286,68.5C 287.044,69.6226 287.71,70.9559 288,72.5C 289.036,69.7056 290.536,69.2056 292.5,71C 290.071,71.4512 289.904,72.2845 292,73.5C 293.113,71.6707 294.613,70.8374 296.5,71C 296.384,72.2682 296.051,73.6015 295.5,75C 296.749,76.8241 297.915,76.6574 299,74.5C 301.42,75.4881 303.753,75.1548 306,73.5C 306.456,74.7441 305.956,75.5774 304.5,76C 306.259,77.008 307.426,78.508 308,80.5C 308.667,79.1667 309.333,79.1667 310,80.5C 309.383,78.9052 309.716,77.5719 311,76.5C 312.822,76.9679 314.989,77.3012 317.5,77.5C 317.185,79.2259 317.019,80.8925 317,82.5C 317.333,82.8333 317.667,83.1667 318,83.5C 318.725,81.842 319.892,81.342 321.5,82C 320.692,82.3076 320.025,82.8076 319.5,83.5C 320.688,83.3069 322.022,83.8069 323.5,85C 322.328,86.8684 322.495,88.7017 324,90.5C 324.196,88.7139 325.029,87.3805 326.5,86.5C 327.934,88.2199 328.767,90.2199 329,92.5C 330.333,91.1667 331.667,89.8333 333,88.5C 335.493,89.9725 334.993,91.4725 331.5,93C 332.77,93.8996 333.77,95.0663 334.5,96.5C 334.313,95.1832 334.98,93.8499 336.5,92.5C 338.893,90.2617 341.06,90.2617 343,92.5C 344,92.1667 345,91.8333 346,91.5C 346.5,92 347,92.5 347.5,93C 346.328,93.4186 345.328,94.0853 344.5,95C 346.198,94.5031 347.865,94.6698 349.5,95.5C 352.028,94.5022 352.028,93.6689 349.5,93C 351.112,92.2797 352.612,92.4464 354,93.5C 355.512,92.7433 356.846,91.7433 358,90.5C 358.667,91.1667 358.667,91.8333 358,92.5C 356.513,93.1552 355.347,94.1552 354.5,95.5C 355.025,96.1924 355.692,96.6924 356.5,97C 355.549,97.7175 355.383,98.5509 356,99.5C 357.963,95.8689 359.463,96.2022 360.5,100.5C 359.448,100.351 358.448,100.517 357.5,101C 359.569,101.324 359.902,102.158 358.5,103.5C 359.888,106.079 361.388,106.079 363,103.5C 365.04,107.446 367.04,107.446 369,103.5C 370.385,104.551 371.385,105.884 372,107.5C 372.333,107.167 372.667,106.833 373,106.5C 373.333,107.833 373.667,109.167 374,110.5C 374.419,109.328 375.085,108.328 376,107.5C 376.617,108.449 376.451,109.282 375.5,110C 376.333,110.833 377.167,111.667 378,112.5C 377.417,110.446 377.917,108.446 379.5,106.5C 380.193,107.96 380.526,109.626 380.5,111.5C 381.833,110.833 383.167,110.167 384.5,109.5C 384.911,110.262 385.077,111.262 385,112.5C 386.667,112.167 388.333,111.833 390,111.5C 391.886,112.93 393.553,114.597 395,116.5C 396.77,115.724 398.603,115.89 400.5,117C 399.833,117.333 399.167,117.667 398.5,118C 400.367,118.711 401.867,118.211 403,116.5C 404.881,119.775 407.547,121.108 411,120.5C 413.014,122.183 414.68,124.183 416,126.5C 417.963,121.08 420.463,120.58 423.5,125C 421.956,125.29 420.623,125.956 419.5,127C 421.862,126.496 424.195,126.663 426.5,127.5C 428.187,127.24 429.687,126.573 431,125.5C 431.785,127.286 432.951,128.786 434.5,130C 432.112,130.865 430.612,130.032 430,127.5C 429.691,128.766 429.191,129.933 428.5,131C 430.101,131.273 431.601,131.773 433,132.5C 434.329,131.506 435.662,130.506 437,129.5C 442.047,130.371 442.88,132.704 439.5,136.5C 440.77,137.562 441.937,138.562 443,139.5C 443.862,137.913 444.529,136.246 445,134.5C 445.92,134.93 446.753,135.264 447.5,135.5C 446.975,136.192 446.308,136.692 445.5,137C 447.274,137.881 447.94,139.047 447.5,140.5C 448.646,139.855 449.646,139.022 450.5,138C 449.346,137.086 449.513,136.253 451,135.5C 451.58,138.161 452.414,140.661 453.5,143C 455.167,143.667 456.833,143.667 458.5,143C 457.346,142.086 457.513,141.253 459,140.5C 460.574,141.984 461.907,143.651 463,145.5C 463.333,145.167 463.667,144.833 464,144.5C 467.965,145.918 468.465,148.084 465.5,151C 465.833,151.833 466.167,152.667 466.5,153.5C 467.5,152.167 468.5,150.833 469.5,149.5C 469.109,145.775 467.109,143.775 463.5,143.5C 463.357,140.678 464.191,138.345 466,136.5C 466.5,137.667 467.333,138.5 468.5,139C 467.552,139.483 466.552,139.649 465.5,139.5C 465.281,140.675 465.614,141.675 466.5,142.5C 467.989,142.533 469.322,143.033 470.5,144C 470.043,144.414 469.709,144.914 469.5,145.5C 470.863,146.893 471.696,148.559 472,150.5C 472.725,148.051 473.725,145.717 475,143.5C 475.414,143.957 475.914,144.291 476.5,144.5C 478.738,141.567 479.738,141.901 479.5,145.5C 473.896,145.676 473.396,147.009 478,149.5C 479.085,147.343 480.251,147.176 481.5,149C 480.328,149.419 479.328,150.085 478.5,151C 479.536,152.617 480.703,152.784 482,151.5C 482.456,152.744 481.956,153.577 480.5,154C 482.667,154.833 484.167,156.333 485,158.5C 485.918,156.368 487.251,155.701 489,156.5C 489.434,152.777 490.268,152.61 491.5,156C 490.341,158.349 491.007,159.683 493.5,160C 493.056,158.467 492.723,156.967 492.5,155.5C 492.846,154.304 493.346,154.304 494,155.5C 494.767,151.259 496.267,150.759 498.5,154C 494.77,163.223 496.603,164.056 504,156.5C 504.772,157.849 505.939,158.682 507.5,159C 505.998,159.583 504.665,160.416 503.5,161.5C 504.912,163.579 506.412,165.579 508,167.5C 508.75,166.874 509.584,166.374 510.5,166C 508.998,165.417 507.665,164.584 506.5,163.5C 506.846,162.304 507.346,162.304 508,163.5C 508.837,161.993 510.004,161.493 511.5,162C 510.542,163.147 510.875,164.147 512.5,165C 511.424,166.726 511.257,168.559 512,170.5C 513.779,169.521 515.445,169.854 517,171.5C 519.855,168.536 522.189,168.87 524,172.5C 526.044,171.228 527.878,171.561 529.5,173.5C 530.519,172.313 531.686,171.313 533,170.5C 533.5,171.667 534.333,172.5 535.5,173C 535.167,173.333 534.833,173.667 534.5,174C 535.191,175.067 535.691,176.234 536,177.5C 536.708,176.619 537.542,175.953 538.5,175.5C 542.103,181.707 545.436,188.04 548.5,194.5C 552.857,207.24 557.191,219.907 561.5,232.5C 567.336,259.192 569.836,286.192 569,313.5C 568.826,318.684 568.326,323.684 567.5,328.5C 567.808,326.076 567.474,323.743 566.5,321.5C 565.28,322.711 564.113,322.711 563,321.5C 561.559,322.87 559.892,323.87 558,324.5C 557.946,321.139 556.946,318.139 555,315.5C 553.436,320.459 551.103,320.793 548,316.5C 547.667,316.833 547.333,317.167 547,317.5C 543.772,314.865 541.772,315.198 541,318.5C 539.674,317.201 538.34,315.868 537,314.5C 536.163,316.007 534.996,316.507 533.5,316C 534.28,314.927 534.113,313.76 533,312.5C 531.844,313.993 531.01,313.826 530.5,312C 530.905,311.055 531.572,310.388 532.5,310C 530.746,307.173 528.912,307.006 527,309.5C 526.08,306.062 524.413,303.062 522,300.5C 520.716,301.572 520.383,302.905 521,304.5C 519.703,303.216 518.536,303.383 517.5,305C 519.991,305.626 519.991,306.459 517.5,307.5C 518.326,308.451 518.492,309.451 518,310.5C 516.601,309.773 515.101,309.273 513.5,309C 514.5,308.667 515.5,308.333 516.5,308C 516.201,306.68 516.034,305.18 516,303.5C 514.84,305.797 513.84,305.464 513,302.5C 512.5,303.667 511.667,304.5 510.5,305C 511.381,306.793 510.714,307.46 508.5,307C 509.293,304.603 509.126,301.77 508,298.5C 506.234,300.596 504.901,302.929 504,305.5C 502.672,303.978 502.838,302.311 504.5,300.5C 503.833,300.167 503.167,299.833 502.5,299.5C 503.025,298.808 503.692,298.308 504.5,298C 501.903,298.704 499.403,299.204 497,299.5C 495.485,297.095 494.318,297.428 493.5,300.5C 475.211,260.501 443.878,241.001 399.5,242C 368.221,191.873 323.221,171.873 264.5,182C 256.48,183.95 248.814,186.784 241.5,190.5C 241.714,188.856 241.38,187.356 240.5,186C 241.167,185.667 241.833,185.333 242.5,185C 241.521,182.863 240.188,181.029 238.5,179.5C 236.831,180.671 235.331,182.004 234,183.5C 232.044,183.339 230.044,183.006 228,182.5C 227.383,183.449 227.549,184.282 228.5,185C 226.667,185.5 225.5,186.667 225,188.5C 224.5,188 224,187.5 223.5,187C 227.281,183.737 227.448,180.237 224,176.5C 223.581,177.672 222.915,178.672 222,179.5C 220.47,178.364 219.137,177.364 218,176.5C 215.826,178.712 213.992,178.212 212.5,175C 212.833,174.667 213.167,174.333 213.5,174C 212.062,173.781 210.729,173.281 209.5,172.5C 210.326,170.452 209.659,168.785 207.5,167.5C 203.036,168.759 202.37,171.092 205.5,174.5C 206.675,173.145 207.675,173.312 208.5,175C 206.899,175.273 205.399,175.773 204,176.5C 203.721,172.81 201.888,169.643 198.5,167C 197.833,166.333 197.167,166.333 196.5,167C 198.683,169.724 199.683,172.557 199.5,175.5C 198.667,174.5 197.833,173.5 197,172.5C 196.086,173.654 195.253,173.487 194.5,172C 195.167,171.667 195.833,171.333 196.5,171C 194.233,170.724 191.9,170.057 189.5,169C 191.5,168.667 193.5,168.333 195.5,168C 191.639,167.697 190.139,165.863 191,162.5C 190.147,160.875 189.147,160.542 188,161.5C 187.333,160.167 186.667,158.833 186,157.5C 185.316,158.784 185.483,159.951 186.5,161C 184.66,161.012 182.827,161.846 181,163.5C 180.64,161.579 179.806,159.912 178.5,158.5C 176.627,159.089 174.96,158.422 173.5,156.5C 172.098,155.158 172.431,154.324 174.5,154C 173.216,153.316 172.049,153.483 171,154.5C 170.751,153.376 170.251,152.376 169.5,151.5C 168.304,151.846 168.304,152.346 169.5,153C 166.944,154.438 164.278,154.438 161.5,153C 161.64,151.931 161.64,150.764 161.5,149.5C 160.522,149.977 159.689,150.643 159,151.5C 158.667,150.833 158.333,150.167 158,149.5C 156.865,152.707 154.865,154.041 152,153.5C 151.529,155.246 150.862,156.913 150,158.5C 149.626,157.584 149.126,156.75 148.5,156C 149.554,154.612 149.72,153.112 149,151.5C 148.667,152.167 148.333,152.833 148,153.5C 147.5,152.333 146.667,151.5 145.5,151C 146.5,150.667 147.5,150.333 148.5,150C 148.201,148.68 148.034,147.18 148,145.5C 147.309,147.891 146.309,147.891 145,145.5C 144.25,146.126 143.416,146.626 142.5,147C 144.061,150.385 143.394,151.051 140.5,149C 140.833,148.667 141.167,148.333 141.5,148C 140.809,146.933 140.309,145.766 140,144.5C 139.667,144.833 139.333,145.167 139,145.5C 136.368,139.964 132.201,137.131 126.5,137C 124.136,133.631 122.636,134.131 122,138.5C 121,137.5 120,136.5 119,135.5C 118.581,136.672 117.915,137.672 117,138.5C 114.116,135.277 111.782,131.611 110,127.5C 109.333,128.833 108.667,128.833 108,127.5C 107.667,128.167 107.333,128.833 107,129.5C 105.732,129.384 104.398,129.051 103,128.5C 102.167,129.5 101.333,130.5 100.5,131.5C 100.81,129.799 100.31,128.132 99,126.5C 97.6976,125.915 96.531,125.249 95.5,124.5C 127.602,86.7575 167.268,60.0908 214.5,44.5C 216.993,43.2264 219.659,42.5597 222.5,42.5 Z"/></g>
<g><path style="opacity:1" fill="#57adc4" d="M 395.5,47.5 C 402.403,49.017 408.737,51.6837 414.5,55.5C 413.504,55.4142 412.671,55.7476 412,56.5C 411.692,55.6919 411.192,55.0253 410.5,54.5C 405.312,52.3381 400.312,50.0048 395.5,47.5 Z"/></g>
<g><path style="opacity:1" fill="#47b9dd" d="M 83.5,139.5 C 85.5932,140.045 87.5932,140.878 89.5,142C 87.4547,142.93 86.6213,144.43 87,146.5C 88.7094,144.825 90.3761,143.158 92,141.5C 94.0136,143.183 95.6802,145.183 97,147.5C 97.6152,145.884 98.6152,144.551 100,143.5C 100.333,144.167 100.667,144.833 101,145.5C 101.718,144.549 102.551,144.383 103.5,145C 102.5,146 101.5,147 100.5,148C 104.281,148.367 104.948,149.7 102.5,152C 104.788,151.947 107.121,151.614 109.5,151C 108.04,150.189 107.707,149.355 108.5,148.5C 110.605,152.108 113.272,155.275 116.5,158C 117.5,158.667 118.5,158.667 119.5,158C 118.289,157.107 118.289,156.274 119.5,155.5C 120.799,156.09 121.632,157.09 122,158.5C 122.333,157.833 122.667,157.167 123,156.5C 124.204,157.471 124.704,158.471 124.5,159.5C 126.059,158.926 127.559,158.26 129,157.5C 129.617,158.449 129.451,159.282 128.5,160C 130.448,160.983 132.282,162.15 134,163.5C 134.333,161.833 134.667,160.167 135,158.5C 135.219,159.938 135.719,161.271 136.5,162.5C 138.078,161.36 139.744,160.86 141.5,161C 140.167,162 140.167,163 141.5,164C 140.833,164.333 140.167,164.667 139.5,165C 140.833,166 142.167,167 143.5,168C 143.167,168.333 142.833,168.667 142.5,169C 143.5,169.333 144.5,169.667 145.5,170C 145.167,170.333 144.833,170.667 144.5,171C 145.833,171.667 147.167,171.667 148.5,171C 147.304,170.346 147.304,169.846 148.5,169.5C 149.863,170.879 150.863,170.713 151.5,169C 150.616,167.902 149.616,167.402 148.5,167.5C 149.315,165.724 150.482,165.057 152,165.5C 153.047,168.499 155.213,169.999 158.5,170C 154.182,173.69 154.516,175.357 159.5,175C 159.167,175.333 158.833,175.667 158.5,176C 160.282,176.814 161.782,177.981 163,179.5C 163.667,178.833 164.333,178.167 165,177.5C 165.368,178.91 166.201,179.91 167.5,180.5C 168.711,179.726 168.711,178.893 167.5,178C 168.253,176.513 169.086,176.346 170,177.5C 170.149,174.721 170.983,174.221 172.5,176C 171.335,177.868 171.668,179.702 173.5,181.5C 173.911,180.738 174.077,179.738 174,178.5C 175.399,179.227 176.899,179.727 178.5,180C 177.549,180.718 177.383,181.551 178,182.5C 179.049,181.483 180.216,181.316 181.5,182C 181.153,183.569 180.986,185.402 181,187.5C 181.308,186.692 181.808,186.025 182.5,185.5C 183.281,186.729 183.781,188.062 184,189.5C 184.192,187.423 184.692,185.423 185.5,183.5C 186.228,185.193 187.228,186.693 188.5,188C 187.833,188.333 187.167,188.667 186.5,189C 188.899,189.731 191.065,190.898 193,192.5C 193.645,191.354 194.478,190.354 195.5,189.5C 194.145,188.325 194.312,187.325 196,186.5C 196.308,187.308 196.808,187.975 197.5,188.5C 197.489,187.559 197.989,186.892 199,186.5C 199.253,187.535 200.086,188.535 201.5,189.5C 203.171,186.919 203.671,187.252 203,190.5C 202.075,191.047 201.242,191.713 200.5,192.5C 202.984,195.501 205.317,195.667 207.5,193C 206.833,192.667 206.167,192.333 205.5,192C 206.517,190.951 206.684,189.784 206,188.5C 205.346,189.696 204.846,189.696 204.5,188.5C 205.723,187.386 207.056,187.219 208.5,188C 206.945,191.958 208.612,194.125 213.5,194.5C 213.351,195.552 213.517,196.552 214,197.5C 214.72,195.888 214.554,194.388 213.5,193C 214.731,191.033 215.731,191.199 216.5,193.5C 215.45,195.102 216.117,195.935 218.5,196C 217.833,196.667 217.167,197.333 216.5,198C 217.527,199.866 218.527,201.7 219.5,203.5C 198.724,219.797 184.391,240.63 176.5,266C 165.643,266.464 155.31,268.964 145.5,273.5C 145.67,272.178 145.337,271.011 144.5,270C 142.5,269.333 140.5,268.667 138.5,268C 139.696,267.346 139.696,266.846 138.5,266.5C 137.232,267.428 135.899,267.595 134.5,267C 137.028,266.331 137.028,265.498 134.5,264.5C 133.059,265.304 131.559,265.971 130,266.5C 129.055,266.095 128.388,265.428 128,264.5C 127.667,264.833 127.333,265.167 127,265.5C 126.5,264.333 125.667,263.5 124.5,263C 125.624,262.751 126.624,262.251 127.5,261.5C 125.516,260.294 123.516,260.294 121.5,261.5C 120.289,260.726 120.289,259.893 121.5,259C 120.584,258.626 119.75,258.126 119,257.5C 118.755,259.663 117.755,261.33 116,262.5C 113.866,260.422 114.032,258.588 116.5,257C 114.905,257.617 113.572,257.284 112.5,256C 113.451,255.282 113.617,254.449 113,253.5C 111.333,256.167 109.667,256.167 108,253.5C 104.793,256.15 104.293,255.984 106.5,253C 105.874,252.25 105.374,251.416 105,250.5C 103.113,252.062 102.28,253.729 102.5,255.5C 101.138,253.988 100.804,252.488 101.5,251C 99.9452,249.354 98.2785,249.021 96.5,250C 98.6574,248.915 98.8241,247.749 97,246.5C 94.9333,249.014 93.4333,248.848 92.5,246C 91.5,245.333 90.5,245.333 89.5,246C 90.4239,246.85 90.4239,247.85 89.5,249C 91.5117,250.152 91.6783,251.318 90,252.5C 88.8372,250.715 88.1705,248.715 88,246.5C 87.6667,246.833 87.3333,247.167 87,247.5C 86.6964,245.559 85.8631,243.893 84.5,242.5C 84.7093,241.914 85.0426,241.414 85.5,241C 84.1667,240.333 82.8333,240.333 81.5,241C 84.4064,244.113 85.073,247.279 83.5,250.5C 82.8076,249.975 82.3076,249.308 82,248.5C 81.6667,248.833 81.3333,249.167 81,249.5C 80.6905,248.234 80.1905,247.067 79.5,246C 83.3273,244.42 83.1606,242.92 79,241.5C 78.7837,243.384 78.117,245.051 77,246.5C 77.4296,244.873 77.5963,243.373 77.5,242C 75.1167,241.935 74.45,241.102 75.5,239.5C 74.7312,237.199 73.7312,237.033 72.5,239C 73.4506,239.718 73.6172,240.551 73,241.5C 71.6012,240.773 70.1012,240.273 68.5,240C 66.8456,238.173 66.0123,236.34 66,234.5C 65.6667,235.5 65.3333,236.5 65,237.5C 64.2588,236.359 63.4255,236.359 62.5,237.5C 62.3248,235.627 61.4914,233.627 60,231.5C 59.7242,236.545 58.3909,237.212 56,233.5C 55.6667,233.833 55.3333,234.167 55,234.5C 54.3162,233.216 54.4829,232.049 55.5,231C 55,230.5 54.5,230 54,229.5C 53.3333,230.833 52.6667,230.833 52,229.5C 51.7398,231.618 50.7398,233.284 49,234.5C 48.323,232.311 47.1563,231.978 45.5,233.5C 41.5,232.5 41.5,231.5 45.5,230.5C 46.7164,231.002 47.8831,231.335 49,231.5C 49.6924,230.975 50.1924,230.308 50.5,229.5C 48.7367,229.306 46.9033,229.306 45,229.5C 43.5952,228.269 42.4286,226.936 41.5,225.5C 50.1894,194.123 64.1894,165.457 83.5,139.5 Z"/></g>
<g><path style="opacity:1" fill="#4bbbde" d="M 95.5,124.5 C 96.531,125.249 97.6976,125.915 99,126.5C 100.31,128.132 100.81,129.799 100.5,131.5C 101.333,130.5 102.167,129.5 103,128.5C 104.398,129.051 105.732,129.384 107,129.5C 107.333,128.833 107.667,128.167 108,127.5C 108.667,128.833 109.333,128.833 110,127.5C 111.782,131.611 114.116,135.277 117,138.5C 117.915,137.672 118.581,136.672 119,135.5C 120,136.5 121,137.5 122,138.5C 122.636,134.131 124.136,133.631 126.5,137C 132.201,137.131 136.368,139.964 139,145.5C 139.333,145.167 139.667,144.833 140,144.5C 140.309,145.766 140.809,146.933 141.5,148C 141.167,148.333 140.833,148.667 140.5,149C 143.394,151.051 144.061,150.385 142.5,147C 143.416,146.626 144.25,146.126 145,145.5C 146.309,147.891 147.309,147.891 148,145.5C 148.034,147.18 148.201,148.68 148.5,150C 147.5,150.333 146.5,150.667 145.5,151C 146.667,151.5 147.5,152.333 148,153.5C 148.333,152.833 148.667,152.167 149,151.5C 149.72,153.112 149.554,154.612 148.5,156C 149.126,156.75 149.626,157.584 150,158.5C 150.862,156.913 151.529,155.246 152,153.5C 154.865,154.041 156.865,152.707 158,149.5C 158.333,150.167 158.667,150.833 159,151.5C 159.689,150.643 160.522,149.977 161.5,149.5C 161.64,150.764 161.64,151.931 161.5,153C 164.278,154.438 166.944,154.438 169.5,153C 168.304,152.346 168.304,151.846 169.5,151.5C 170.251,152.376 170.751,153.376 171,154.5C 172.049,153.483 173.216,153.316 174.5,154C 172.431,154.324 172.098,155.158 173.5,156.5C 174.96,158.422 176.627,159.089 178.5,158.5C 179.806,159.912 180.64,161.579 181,163.5C 182.827,161.846 184.66,161.012 186.5,161C 185.483,159.951 185.316,158.784 186,157.5C 186.667,158.833 187.333,160.167 188,161.5C 189.147,160.542 190.147,160.875 191,162.5C 190.139,165.863 191.639,167.697 195.5,168C 193.5,168.333 191.5,168.667 189.5,169C 191.9,170.057 194.233,170.724 196.5,171C 195.833,171.333 195.167,171.667 194.5,172C 195.253,173.487 196.086,173.654 197,172.5C 197.833,173.5 198.667,174.5 199.5,175.5C 199.683,172.557 198.683,169.724 196.5,167C 197.167,166.333 197.833,166.333 198.5,167C 201.888,169.643 203.721,172.81 204,176.5C 205.399,175.773 206.899,175.273 208.5,175C 207.675,173.312 206.675,173.145 205.5,174.5C 202.37,171.092 203.036,168.759 207.5,167.5C 209.659,168.785 210.326,170.452 209.5,172.5C 210.729,173.281 212.062,173.781 213.5,174C 213.167,174.333 212.833,174.667 212.5,175C 213.992,178.212 215.826,178.712 218,176.5C 219.137,177.364 220.47,178.364 222,179.5C 222.915,178.672 223.581,177.672 224,176.5C 227.448,180.237 227.281,183.737 223.5,187C 224,187.5 224.5,188 225,188.5C 225.5,186.667 226.667,185.5 228.5,185C 227.549,184.282 227.383,183.449 228,182.5C 230.044,183.006 232.044,183.339 234,183.5C 235.331,182.004 236.831,180.671 238.5,179.5C 240.188,181.029 241.521,182.863 242.5,185C 241.833,185.333 241.167,185.667 240.5,186C 241.38,187.356 241.714,188.856 241.5,190.5C 233.683,193.977 226.35,198.31 219.5,203.5C 218.527,201.7 217.527,199.866 216.5,198C 217.167,197.333 217.833,196.667 218.5,196C 216.117,195.935 215.45,195.102 216.5,193.5C 215.731,191.199 214.731,191.033 213.5,193C 214.554,194.388 214.72,195.888 214,197.5C 213.517,196.552 213.351,195.552 213.5,194.5C 208.612,194.125 206.945,191.958 208.5,188C 207.056,187.219 205.723,187.386 204.5,188.5C 204.846,189.696 205.346,189.696 206,188.5C 206.684,189.784 206.517,190.951 205.5,192C 206.167,192.333 206.833,192.667 207.5,193C 205.317,195.667 202.984,195.501 200.5,192.5C 201.242,191.713 202.075,191.047 203,190.5C 203.671,187.252 203.171,186.919 201.5,189.5C 200.086,188.535 199.253,187.535 199,186.5C 197.989,186.892 197.489,187.559 197.5,188.5C 196.808,187.975 196.308,187.308 196,186.5C 194.312,187.325 194.145,188.325 195.5,189.5C 194.478,190.354 193.645,191.354 193,192.5C 191.065,190.898 188.899,189.731 186.5,189C 187.167,188.667 187.833,188.333 188.5,188C 187.228,186.693 186.228,185.193 185.5,183.5C 184.692,185.423 184.192,187.423 184,189.5C 183.781,188.062 183.281,186.729 182.5,185.5C 181.808,186.025 181.308,186.692 181,187.5C 180.986,185.402 181.153,183.569 181.5,182C 180.216,181.316 179.049,181.483 178,182.5C 177.383,181.551 177.549,180.718 178.5,180C 176.899,179.727 175.399,179.227 174,178.5C 174.077,179.738 173.911,180.738 173.5,181.5C 171.668,179.702 171.335,177.868 172.5,176C 170.983,174.221 170.149,174.721 170,177.5C 169.086,176.346 168.253,176.513 167.5,178C 168.711,178.893 168.711,179.726 167.5,180.5C 166.201,179.91 165.368,178.91 165,177.5C 164.333,178.167 163.667,178.833 163,179.5C 161.782,177.981 160.282,176.814 158.5,176C 158.833,175.667 159.167,175.333 159.5,175C 154.516,175.357 154.182,173.69 158.5,170C 155.213,169.999 153.047,168.499 152,165.5C 150.482,165.057 149.315,165.724 148.5,167.5C 149.616,167.402 150.616,167.902 151.5,169C 150.863,170.713 149.863,170.879 148.5,169.5C 147.304,169.846 147.304,170.346 148.5,171C 147.167,171.667 145.833,171.667 144.5,171C 144.833,170.667 145.167,170.333 145.5,170C 144.5,169.667 143.5,169.333 142.5,169C 142.833,168.667 143.167,168.333 143.5,168C 142.167,167 140.833,166 139.5,165C 140.167,164.667 140.833,164.333 141.5,164C 140.167,163 140.167,162 141.5,161C 139.744,160.86 138.078,161.36 136.5,162.5C 135.719,161.271 135.219,159.938 135,158.5C 134.667,160.167 134.333,161.833 134,163.5C 132.282,162.15 130.448,160.983 128.5,160C 129.451,159.282 129.617,158.449 129,157.5C 127.559,158.26 126.059,158.926 124.5,159.5C 124.704,158.471 124.204,157.471 123,156.5C 122.667,157.167 122.333,157.833 122,158.5C 121.632,157.09 120.799,156.09 119.5,155.5C 118.289,156.274 118.289,157.107 119.5,158C 118.5,158.667 117.5,158.667 116.5,158C 113.272,155.275 110.605,152.108 108.5,148.5C 107.707,149.355 108.04,150.189 109.5,151C 107.121,151.614 104.788,151.947 102.5,152C 104.948,149.7 104.281,148.367 100.5,148C 101.5,147 102.5,146 103.5,145C 102.551,144.383 101.718,144.549 101,145.5C 100.667,144.833 100.333,144.167 100,143.5C 98.6152,144.551 97.6152,145.884 97,147.5C 95.6802,145.183 94.0136,143.183 92,141.5C 90.3761,143.158 88.7094,144.825 87,146.5C 86.6213,144.43 87.4547,142.93 89.5,142C 87.5932,140.878 85.5932,140.045 83.5,139.5C 87.5303,134.476 91.5303,129.476 95.5,124.5 Z"/></g>
<g><path style="opacity:1" fill="#438da2" d="M 212.5,43.5 C 213.492,43.3284 214.158,43.6618 214.5,44.5C 167.268,60.0908 127.602,86.7575 95.5,124.5C 91.5303,129.476 87.5303,134.476 83.5,139.5C 64.1894,165.457 50.1894,194.123 41.5,225.5C 37.0303,239.063 34.0303,253.063 32.5,267.5C 30.9303,282.782 30.2636,298.115 30.5,313.5C 30.1667,313.5 29.8333,313.5 29.5,313.5C 26.7375,215.512 64.4042,137.346 142.5,79C 164.122,63.6895 187.455,51.8562 212.5,43.5 Z"/></g>
<g><path style="opacity:1" fill="#fcfdfe" d="M 493.5,300.5 C 493.5,301.167 493.5,301.833 493.5,302.5C 493.41,305.152 494.076,307.485 495.5,309.5C 495.5,309.833 495.5,310.167 495.5,310.5C 498.134,324.171 498.134,337.838 495.5,351.5C 494.699,353.042 494.366,354.708 494.5,356.5C 493.262,358.214 492.595,360.214 492.5,362.5C 480.794,389.872 460.794,408.206 432.5,417.5C 428.491,417.858 424.491,418.358 420.5,419C 336.167,419.5 251.834,419.667 167.5,419.5C 165.194,419.007 162.861,418.674 160.5,418.5C 160.167,418.5 159.833,418.5 159.5,418.5C 157.485,417.076 155.152,416.41 152.5,416.5C 121.055,403.713 103.722,380.379 100.5,346.5C 100.786,329.98 105.12,314.647 113.5,300.5C 122.308,289.364 132.974,280.364 145.5,273.5C 155.31,268.964 165.643,266.464 176.5,266C 184.391,240.63 198.724,219.797 219.5,203.5C 226.35,198.31 233.683,193.977 241.5,190.5C 248.814,186.784 256.48,183.95 264.5,182C 323.221,171.873 368.221,191.873 399.5,242C 443.878,241.001 475.211,260.501 493.5,300.5 Z"/></g>
<g><path style="opacity:1" fill="#48a6bf" d="M 554.5,141.5 C 565.256,157.679 573.923,175.012 580.5,193.5C 572.624,176.414 563.957,159.08 554.5,141.5 Z"/></g>
<g><path style="opacity:1" fill="#7ed0e7" d="M 548.5,194.5 C 554.662,206.453 558.995,219.119 561.5,232.5C 557.191,219.907 552.857,207.24 548.5,194.5 Z"/></g>
<g><path style="opacity:1" fill="#44b6dd" d="M 41.5,225.5 C 42.4286,226.936 43.5952,228.269 45,229.5C 46.9033,229.306 48.7367,229.306 50.5,229.5C 50.1924,230.308 49.6924,230.975 49,231.5C 47.8831,231.335 46.7164,231.002 45.5,230.5C 41.5,231.5 41.5,232.5 45.5,233.5C 47.1563,231.978 48.323,232.311 49,234.5C 50.7398,233.284 51.7398,231.618 52,229.5C 52.6667,230.833 53.3333,230.833 54,229.5C 54.5,230 55,230.5 55.5,231C 54.4829,232.049 54.3162,233.216 55,234.5C 55.3333,234.167 55.6667,233.833 56,233.5C 58.3909,237.212 59.7242,236.545 60,231.5C 61.4914,233.627 62.3248,235.627 62.5,237.5C 63.4255,236.359 64.2588,236.359 65,237.5C 65.3333,236.5 65.6667,235.5 66,234.5C 66.0123,236.34 66.8456,238.173 68.5,240C 70.1012,240.273 71.6012,240.773 73,241.5C 73.6172,240.551 73.4506,239.718 72.5,239C 73.7312,237.033 74.7312,237.199 75.5,239.5C 74.45,241.102 75.1167,241.935 77.5,242C 77.5963,243.373 77.4296,244.873 77,246.5C 78.117,245.051 78.7837,243.384 79,241.5C 83.1606,242.92 83.3273,244.42 79.5,246C 80.1905,247.067 80.6905,248.234 81,249.5C 81.3333,249.167 81.6667,248.833 82,248.5C 82.3076,249.308 82.8076,249.975 83.5,250.5C 85.073,247.279 84.4064,244.113 81.5,241C 82.8333,240.333 84.1667,240.333 85.5,241C 85.0426,241.414 84.7093,241.914 84.5,242.5C 85.8631,243.893 86.6964,245.559 87,247.5C 87.3333,247.167 87.6667,246.833 88,246.5C 88.1705,248.715 88.8372,250.715 90,252.5C 91.6783,251.318 91.5117,250.152 89.5,249C 90.4239,247.85 90.4239,246.85 89.5,246C 90.5,245.333 91.5,245.333 92.5,246C 93.4333,248.848 94.9333,249.014 97,246.5C 98.8241,247.749 98.6574,248.915 96.5,250C 98.2785,249.021 99.9452,249.354 101.5,251C 100.804,252.488 101.138,253.988 102.5,255.5C 102.28,253.729 103.113,252.062 105,250.5C 105.374,251.416 105.874,252.25 106.5,253C 104.293,255.984 104.793,256.15 108,253.5C 109.667,256.167 111.333,256.167 113,253.5C 113.617,254.449 113.451,255.282 112.5,256C 113.572,257.284 114.905,257.617 116.5,257C 114.032,258.588 113.866,260.422 116,262.5C 117.755,261.33 118.755,259.663 119,257.5C 119.75,258.126 120.584,258.626 121.5,259C 120.289,259.893 120.289,260.726 121.5,261.5C 123.516,260.294 125.516,260.294 127.5,261.5C 126.624,262.251 125.624,262.751 124.5,263C 125.667,263.5 126.5,264.333 127,265.5C 127.333,265.167 127.667,264.833 128,264.5C 128.388,265.428 129.055,266.095 130,266.5C 131.559,265.971 133.059,265.304 134.5,264.5C 137.028,265.498 137.028,266.331 134.5,267C 135.899,267.595 137.232,267.428 138.5,266.5C 139.696,266.846 139.696,267.346 138.5,268C 140.5,268.667 142.5,269.333 144.5,270C 145.337,271.011 145.67,272.178 145.5,273.5C 132.974,280.364 122.308,289.364 113.5,300.5C 112.025,298.59 110.025,297.424 107.5,297C 109.044,296.71 110.377,296.044 111.5,295C 109.368,294.082 108.701,292.749 109.5,291C 107.598,290.801 106.098,289.967 105,288.5C 103.111,289.097 101.278,289.431 99.5,289.5C 97.5708,285.393 96.2375,285.56 95.5,290C 96.2913,291.101 96.2913,291.934 95.5,292.5C 94.7189,291.271 94.2189,289.938 94,288.5C 92.9153,290.657 91.7487,290.824 90.5,289C 92.8912,288.309 92.8912,287.309 90.5,286C 93.2572,282.295 92.7572,281.795 89,284.5C 85.9664,283.008 85.7997,281.341 88.5,279.5C 88.263,276.937 87.763,276.937 87,279.5C 86.1475,277.875 85.1475,277.542 84,278.5C 83.7104,276.956 83.0437,275.623 82,274.5C 81.3162,275.784 81.4829,276.951 82.5,278C 81.6667,278.833 80.8333,279.667 80,280.5C 79,279.167 78,279.167 77,280.5C 76.4391,277.71 75.1058,275.377 73,273.5C 72.6758,275.569 71.8425,275.902 70.5,274.5C 69.269,273.349 69.269,272.183 70.5,271C 67.8929,270.363 65.5596,269.196 63.5,267.5C 62.9041,268.716 62.7374,270.049 63,271.5C 60.7202,270.914 58.5535,270.08 56.5,269C 57.5,268.667 58.5,268.333 59.5,268C 58.1279,267.598 56.7946,267.098 55.5,266.5C 55.2635,267.247 54.9302,268.08 54.5,269C 55.7433,270.154 56.7433,271.488 57.5,273C 54.2521,272.812 51.0854,271.979 48,270.5C 47.1376,272.087 46.4709,273.754 46,275.5C 45.6258,274.584 45.1258,273.75 44.5,273C 45.9348,270.733 45.6015,268.733 43.5,267C 45.7073,264.016 45.2073,263.85 42,266.5C 41.3333,265.167 40.6667,263.833 40,262.5C 37.9935,263.669 35.8268,264.335 33.5,264.5C 33.7373,265.791 33.404,266.791 32.5,267.5C 34.0303,253.063 37.0303,239.063 41.5,225.5 Z"/></g>
<g><path style="opacity:1" fill="#429bb4" d="M 581.5,195.5 C 590.834,221.182 596.834,247.515 599.5,274.5C 599.5,277.5 599.5,280.5 599.5,283.5C 598.596,284.209 598.263,285.209 598.5,286.5C 596.823,255.949 590.823,226.115 580.5,197C 580.57,196.235 580.903,195.735 581.5,195.5 Z"/></g>
<g><path style="opacity:1" fill="#40b4dd" d="M 113.5,300.5 C 105.12,314.647 100.786,329.98 100.5,346.5C 98.1312,349.125 95.9646,348.792 94,345.5C 92.9125,347.932 92.4125,347.598 92.5,344.5C 93.552,344.649 94.552,344.483 95.5,344C 94.3333,343.5 93.5,342.667 93,341.5C 92.5,342.667 91.6667,343.5 90.5,344C 91.1958,345.488 90.8625,346.988 89.5,348.5C 86.0645,347.08 85.3978,345.247 87.5,343C 87.3333,342.5 87.1667,342 87,341.5C 86,342.5 85,343.5 84,344.5C 81.6189,343.25 79.6189,341.583 78,339.5C 76.276,342.17 75.1093,341.837 74.5,338.5C 72.187,337.727 69.8537,337.06 67.5,336.5C 67.6778,337.956 66.8445,339.289 65,340.5C 64.3828,339.551 64.5494,338.718 65.5,338C 63.4216,335.866 61.5883,336.032 60,338.5C 58.6319,337.007 58.4652,335.507 59.5,334C 58.0692,333.535 56.9025,332.701 56,331.5C 54.9505,332.517 53.7839,332.684 52.5,332C 53.3452,330.442 52.6785,329.442 50.5,329C 51.5,328.667 52.5,328.333 53.5,328C 49.6354,327.242 45.9688,326.409 42.5,325.5C 42.3309,326.397 41.9976,327.397 41.5,328.5C 39.9309,327.286 39.0976,325.619 39,323.5C 38.586,323.957 38.086,324.291 37.5,324.5C 34.3819,322.835 33.2153,320.502 34,317.5C 33.2917,318.381 32.4584,319.047 31.5,319.5C 31.6747,317.379 31.3414,315.379 30.5,313.5C 30.2636,298.115 30.9303,282.782 32.5,267.5C 33.404,266.791 33.7373,265.791 33.5,264.5C 35.8268,264.335 37.9935,263.669 40,262.5C 40.6667,263.833 41.3333,265.167 42,266.5C 45.2073,263.85 45.7073,264.016 43.5,267C 45.6015,268.733 45.9348,270.733 44.5,273C 45.1258,273.75 45.6258,274.584 46,275.5C 46.4709,273.754 47.1376,272.087 48,270.5C 51.0854,271.979 54.2521,272.812 57.5,273C 56.7433,271.488 55.7433,270.154 54.5,269C 54.9302,268.08 55.2635,267.247 55.5,266.5C 56.7946,267.098 58.1279,267.598 59.5,268C 58.5,268.333 57.5,268.667 56.5,269C 58.5535,270.08 60.7202,270.914 63,271.5C 62.7374,270.049 62.9041,268.716 63.5,267.5C 65.5596,269.196 67.8929,270.363 70.5,271C 69.269,272.183 69.269,273.349 70.5,274.5C 71.8425,275.902 72.6758,275.569 73,273.5C 75.1058,275.377 76.4391,277.71 77,280.5C 78,279.167 79,279.167 80,280.5C 80.8333,279.667 81.6667,278.833 82.5,278C 81.4829,276.951 81.3162,275.784 82,274.5C 83.0437,275.623 83.7104,276.956 84,278.5C 85.1475,277.542 86.1475,277.875 87,279.5C 87.763,276.937 88.263,276.937 88.5,279.5C 85.7997,281.341 85.9664,283.008 89,284.5C 92.7572,281.795 93.2572,282.295 90.5,286C 92.8912,287.309 92.8912,288.309 90.5,289C 91.7487,290.824 92.9153,290.657 94,288.5C 94.2189,289.938 94.7189,291.271 95.5,292.5C 96.2913,291.934 96.2913,291.101 95.5,290C 96.2375,285.56 97.5708,285.393 99.5,289.5C 101.278,289.431 103.111,289.097 105,288.5C 106.098,289.967 107.598,290.801 109.5,291C 108.701,292.749 109.368,294.082 111.5,295C 110.377,296.044 109.044,296.71 107.5,297C 110.025,297.424 112.025,298.59 113.5,300.5 Z"/></g>
<g><path style="opacity:1" fill="#4bbbde" d="M 567.5,328.5 C 566.979,334.19 566.312,339.856 565.5,345.5C 564.542,345.047 563.708,344.381 563,343.5C 562.667,343.833 562.333,344.167 562,344.5C 560.302,342.734 558.969,340.734 558,338.5C 558.617,340.095 558.284,341.428 557,342.5C 553.57,341.001 551.57,338.334 551,334.5C 549.333,335.167 547.667,335.833 546,336.5C 545.135,334.775 544.469,333.108 544,331.5C 543.075,332.047 542.242,332.713 541.5,333.5C 542.506,334.396 542.506,335.062 541.5,335.5C 540.201,334.91 539.368,333.91 539,332.5C 537.482,332.057 536.315,332.724 535.5,334.5C 535.891,333.109 535.058,332.109 533,331.5C 532.667,331.833 532.333,332.167 532,332.5C 531.5,330.667 530.333,329.5 528.5,329C 530.929,328.549 531.096,327.715 529,326.5C 526.966,328.56 524.966,328.226 523,325.5C 521.956,326.623 521.29,327.956 521,329.5C 520.696,327.559 519.863,325.893 518.5,324.5C 519.429,322.678 518.762,321.345 516.5,320.5C 515.914,320.709 515.414,321.043 515,321.5C 514.781,320.062 514.281,318.729 513.5,317.5C 513.168,318.789 512.834,320.455 512.5,322.5C 516.109,322.775 518.109,324.775 518.5,328.5C 517.738,328.911 516.738,329.077 515.5,329C 516.696,329.654 516.696,330.154 515.5,330.5C 515.167,330 514.833,329.5 514.5,329C 515.627,327.943 516.127,326.777 516,325.5C 513.661,324.414 511.161,323.58 508.5,323C 510.709,322.043 510.543,320.876 508,319.5C 507.213,320.711 506.546,321.711 506,322.5C 504.273,322.354 504.106,321.687 505.5,320.5C 505.167,319.5 504.5,318.833 503.5,318.5C 502.904,319.716 502.737,321.049 503,322.5C 501.197,320.516 500.197,318.516 500,316.5C 498.812,317.563 498.312,318.897 498.5,320.5C 497.865,317.069 496.865,313.736 495.5,310.5C 495.5,310.167 495.5,309.833 495.5,309.5C 495.59,306.848 494.924,304.515 493.5,302.5C 493.5,301.833 493.5,301.167 493.5,300.5C 494.318,297.428 495.485,297.095 497,299.5C 499.403,299.204 501.903,298.704 504.5,298C 503.692,298.308 503.025,298.808 502.5,299.5C 503.167,299.833 503.833,300.167 504.5,300.5C 502.838,302.311 502.672,303.978 504,305.5C 504.901,302.929 506.234,300.596 508,298.5C 509.126,301.77 509.293,304.603 508.5,307C 510.714,307.46 511.381,306.793 510.5,305C 511.667,304.5 512.5,303.667 513,302.5C 513.84,305.464 514.84,305.797 516,303.5C 516.034,305.18 516.201,306.68 516.5,308C 515.5,308.333 514.5,308.667 513.5,309C 515.101,309.273 516.601,309.773 518,310.5C 518.492,309.451 518.326,308.451 517.5,307.5C 519.991,306.459 519.991,305.626 517.5,305C 518.536,303.383 519.703,303.216 521,304.5C 520.383,302.905 520.716,301.572 522,300.5C 524.413,303.062 526.08,306.062 527,309.5C 528.912,307.006 530.746,307.173 532.5,310C 531.572,310.388 530.905,311.055 530.5,312C 531.01,313.826 531.844,313.993 533,312.5C 534.113,313.76 534.28,314.927 533.5,316C 534.996,316.507 536.163,316.007 537,314.5C 538.34,315.868 539.674,317.201 541,318.5C 541.772,315.198 543.772,314.865 547,317.5C 547.333,317.167 547.667,316.833 548,316.5C 551.103,320.793 553.436,320.459 555,315.5C 556.946,318.139 557.946,321.139 558,324.5C 559.892,323.87 561.559,322.87 563,321.5C 564.113,322.711 565.28,322.711 566.5,321.5C 567.474,323.743 567.808,326.076 567.5,328.5 Z"/></g>
<g><path style="opacity:1" fill="#afc2c8" d="M 493.5,302.5 C 494.924,304.515 495.59,306.848 495.5,309.5C 494.076,307.485 493.41,305.152 493.5,302.5 Z"/></g>
<g><path style="opacity:1" fill="#47b8dd" d="M 565.5,345.5 C 559.482,378.231 548.148,408.897 531.5,437.5C 530.71,436.391 530.21,435.058 530,433.5C 527.822,434.893 526.822,436.56 527,438.5C 526.5,438 526,437.5 525.5,437C 525.833,435.333 526.167,433.667 526.5,432C 523.623,430.873 520.623,430.206 517.5,430C 516.366,428.984 516.699,428.317 518.5,428C 517.216,427.316 516.049,427.483 515,428.5C 513.221,426.983 513.721,426.149 516.5,426C 514.321,425.558 513.655,424.558 514.5,423C 514,422.5 513.5,422 513,421.5C 512.333,422.833 511.667,422.833 511,421.5C 510.477,423.223 509.477,424.556 508,425.5C 507.055,425.095 506.388,424.428 506,423.5C 505.577,424.956 504.744,425.456 503.5,425C 503.64,423.736 503.64,422.569 503.5,421.5C 502.201,422.09 501.368,423.09 501,424.5C 499.921,422.606 498.587,422.273 497,423.5C 496.259,420.05 494.259,417.717 491,416.5C 490.667,416.833 490.333,417.167 490,417.5C 488.519,411.615 486.519,411.281 484,416.5C 483.667,415.833 483.333,415.167 483,414.5C 481.286,418.277 480.619,418.277 481,414.5C 482.399,413.773 483.899,413.273 485.5,413C 483.5,412 481.5,411 479.5,410C 479.833,409 480.167,408 480.5,407C 478.723,408.653 476.389,409.653 473.5,410C 472.809,411.067 472.309,412.234 472,413.5C 471.707,410.046 470.374,409.712 468,412.5C 466.357,410.01 466.524,407.51 468.5,405C 466.753,404.648 465.086,404.148 463.5,403.5C 473.063,395.057 481.23,385.391 488,374.5C 489.798,370.578 491.298,366.578 492.5,362.5C 494.074,360.898 494.741,358.898 494.5,356.5C 494.366,354.708 494.699,353.042 495.5,351.5C 496.963,348.797 497.796,345.797 498,342.5C 498.5,335.174 498.666,327.841 498.5,320.5C 498.312,318.897 498.812,317.563 500,316.5C 500.197,318.516 501.197,320.516 503,322.5C 502.737,321.049 502.904,319.716 503.5,318.5C 504.5,318.833 505.167,319.5 505.5,320.5C 504.106,321.687 504.273,322.354 506,322.5C 506.546,321.711 507.213,320.711 508,319.5C 510.543,320.876 510.709,322.043 508.5,323C 511.161,323.58 513.661,324.414 516,325.5C 516.127,326.777 515.627,327.943 514.5,329C 514.833,329.5 515.167,330 515.5,330.5C 516.696,330.154 516.696,329.654 515.5,329C 516.738,329.077 517.738,328.911 518.5,328.5C 518.109,324.775 516.109,322.775 512.5,322.5C 512.834,320.455 513.168,318.789 513.5,317.5C 514.281,318.729 514.781,320.062 515,321.5C 515.414,321.043 515.914,320.709 516.5,320.5C 518.762,321.345 519.429,322.678 518.5,324.5C 519.863,325.893 520.696,327.559 521,329.5C 521.29,327.956 521.956,326.623 523,325.5C 524.966,328.226 526.966,328.56 529,326.5C 531.096,327.715 530.929,328.549 528.5,329C 530.333,329.5 531.5,330.667 532,332.5C 532.333,332.167 532.667,331.833 533,331.5C 535.058,332.109 535.891,333.109 535.5,334.5C 536.315,332.724 537.482,332.057 539,332.5C 539.368,333.91 540.201,334.91 541.5,335.5C 542.506,335.062 542.506,334.396 541.5,333.5C 542.242,332.713 543.075,332.047 544,331.5C 544.469,333.108 545.135,334.775 546,336.5C 547.667,335.833 549.333,335.167 551,334.5C 551.57,338.334 553.57,341.001 557,342.5C 558.284,341.428 558.617,340.095 558,338.5C 558.969,340.734 560.302,342.734 562,344.5C 562.333,344.167 562.667,343.833 563,343.5C 563.708,344.381 564.542,345.047 565.5,345.5 Z"/></g>
<g><path style="opacity:1" fill="#3bb1dc" d="M 100.5,346.5 C 103.722,380.379 121.055,403.713 152.5,416.5C 154.515,417.924 156.848,418.59 159.5,418.5C 159.833,418.5 160.167,418.5 160.5,418.5C 162.515,419.924 164.848,420.59 167.5,420.5C 168.167,420.5 168.833,420.5 169.5,420.5C 204.996,421.498 240.663,421.832 276.5,421.5C 276.238,422.978 276.571,424.311 277.5,425.5C 277.669,424.603 278.002,423.603 278.5,422.5C 280.271,423.035 280.604,423.869 279.5,425C 280.448,425.483 281.448,425.649 282.5,425.5C 282.742,430.143 284.576,430.809 288,427.5C 288.617,428.449 288.451,429.282 287.5,430C 289.303,430.637 290.636,431.803 291.5,433.5C 291.749,432.418 291.915,431.085 292,429.5C 293.016,430.634 293.683,430.301 294,428.5C 293.941,430.997 294.774,433.497 296.5,436C 297.744,436.456 298.577,435.956 299,434.5C 300.011,435.337 301.178,435.67 302.5,435.5C 302.34,433.801 302.506,432.134 303,430.5C 306.167,431.667 306.333,433.167 303.5,435C 304.167,435.333 304.833,435.667 305.5,436C 301.242,439.101 301.576,440.768 306.5,441C 305.833,440.333 305.167,439.667 304.5,439C 306.81,437.363 308.31,435.196 309,432.5C 309.428,435.073 309.094,437.406 308,439.5C 308.333,439.167 308.667,438.833 309,438.5C 310.984,440.303 312.984,441.303 315,441.5C 316,440.5 317,439.5 318,438.5C 318.75,439.126 319.584,439.626 320.5,440C 319.167,440.667 317.833,441.333 316.5,442C 318.475,444.132 319.642,446.299 320,448.5C 320.483,447.552 320.649,446.552 320.5,445.5C 322.201,445.034 323.701,445.034 325,445.5C 325.667,444.833 326.333,444.167 327,443.5C 327.714,446.595 328.714,449.595 330,452.5C 331.487,451.747 331.654,450.914 330.5,450C 331.966,449.365 333.3,448.531 334.5,447.5C 334.295,451.265 335.128,451.265 337,447.5C 336.845,449.811 336.845,452.144 337,454.5C 338.028,452.484 339.695,451.484 342,451.5C 344.782,452.472 347.615,453.305 350.5,454C 348.129,456.184 348.296,458.35 351,460.5C 353.096,459.285 352.929,458.451 350.5,458C 352.32,457.021 353.487,455.521 354,453.5C 355.646,455.055 355.979,456.721 355,458.5C 355.837,456.993 357.004,456.493 358.5,457C 358.167,457.333 357.833,457.667 357.5,458C 360.971,459.91 361.971,462.243 360.5,465C 361,465.5 361.5,466 362,466.5C 362.333,464.833 362.667,463.167 363,461.5C 364.309,463.891 365.309,463.891 366,461.5C 367.579,463.041 369.413,464.208 371.5,465C 372.191,466.067 372.691,467.234 373,468.5C 373.418,464.778 375.251,463.778 378.5,465.5C 376.744,467.191 376.244,469.191 377,471.5C 379.057,470.315 381.057,469.315 383,468.5C 385.096,469.715 384.929,470.549 382.5,471C 384.397,472.11 386.23,472.276 388,471.5C 388.862,473.087 389.529,474.754 390,476.5C 393.818,472.321 395.151,472.987 394,478.5C 396.123,477.117 397.123,475.45 397,473.5C 398.803,475.484 399.803,477.484 400,479.5C 399.71,475.911 401.21,474.411 404.5,475C 403.833,475.333 403.167,475.667 402.5,476C 405,478.167 407.5,480.333 410,482.5C 410.333,481.833 410.667,481.167 411,480.5C 411.318,482.061 412.151,483.228 413.5,484C 413.167,484.333 412.833,484.667 412.5,485C 413.742,485.311 414.742,484.811 415.5,483.5C 417.286,485.021 419.119,485.354 421,484.5C 421.853,486.125 422.853,486.458 424,485.5C 424.315,486.908 423.982,488.241 423,489.5C 422.08,489.93 421.247,490.264 420.5,490.5C 421,490.833 421.5,491.167 422,491.5C 423.767,490.66 425.101,489.327 426,487.5C 426.667,490.167 427.333,490.167 428,487.5C 428.315,490.147 429.482,490.813 431.5,489.5C 432.478,489.977 433.311,490.643 434,491.5C 434.333,490.5 434.667,489.5 435,488.5C 435.309,489.766 435.809,490.933 436.5,492C 438.696,493.352 440.862,493.852 443,493.5C 442.016,495.598 442.349,497.598 444,499.5C 444.915,498.672 445.581,497.672 446,496.5C 447.487,497.253 447.654,498.086 446.5,499C 447.744,499.456 448.577,498.956 449,497.5C 450.333,498.167 451.333,499.167 452,500.5C 452.221,497.057 453.221,496.724 455,499.5C 458.207,496.85 458.707,497.016 456.5,500C 458.878,500.974 458.544,501.641 455.5,502C 456.328,502.915 457.328,503.581 458.5,504C 456.071,504.451 455.904,505.285 458,506.5C 459,506.167 460,505.833 461,505.5C 461.333,506.5 461.667,507.5 462,508.5C 462.29,506.956 462.956,505.623 464,504.5C 464.667,505.833 465.333,505.833 466,504.5C 466.333,505.5 466.667,506.5 467,507.5C 468.455,503.778 469.955,503.778 471.5,507.5C 442.642,531.601 409.976,548.934 373.5,559.5C 372.196,557.793 371.03,556.126 370,554.5C 369.581,555.672 368.915,556.672 368,557.5C 367.383,556.551 367.549,555.718 368.5,555C 366.484,552.711 364.151,552.211 361.5,553.5C 359.5,551.833 357.5,550.167 355.5,548.5C 355.167,549.167 354.833,549.833 354.5,550.5C 351.56,549.51 349.727,547.51 349,544.5C 347.667,545.167 346.667,546.167 346,547.5C 342.986,545.481 340.32,543.148 338,540.5C 336.333,540.833 334.667,541.167 333,541.5C 331.388,541.048 330.388,539.715 330,537.5C 329.333,538.167 328.667,538.833 328,539.5C 326.045,538.547 324.378,537.213 323,535.5C 322.577,536.956 321.744,537.456 320.5,537C 322.285,535.407 322.452,533.907 321,532.5C 319.542,533.747 318.042,533.747 316.5,532.5C 315.5,533.167 314.5,533.833 313.5,534.5C 312.289,533.726 312.289,532.893 313.5,532C 311.302,529.233 308.635,528.4 305.5,529.5C 305.264,528.753 304.93,527.92 304.5,527C 302.22,526.767 300.22,525.934 298.5,524.5C 297.522,524.977 296.689,525.643 296,526.5C 294.902,525.033 293.402,524.199 291.5,524C 291.833,523.667 292.167,523.333 292.5,523C 290.888,522.28 289.388,522.446 288,523.5C 287.333,520.833 286.667,520.833 286,523.5C 285.729,519.87 284.062,518.87 281,520.5C 279.426,519.016 278.093,517.349 277,515.5C 274.766,516.705 273.099,516.039 272,513.5C 271,513.833 270,514.167 269,514.5C 268.047,512.408 266.714,512.075 265,513.5C 264.395,511.519 263.395,511.185 262,512.5C 260.16,510.662 258.493,508.662 257,506.5C 254.942,507.109 254.109,508.109 254.5,509.5C 254.229,507.496 252.896,505.829 250.5,504.5C 248.878,506.854 247.378,506.854 246,504.5C 244.816,506.654 243.65,506.32 242.5,503.5C 243.855,502.325 243.688,501.325 242,500.5C 241.282,501.451 240.449,501.617 239.5,501C 238.167,500.333 238.167,499.667 239.5,499C 238.234,498.691 237.067,498.191 236,497.5C 234.933,498.191 233.766,498.691 232.5,499C 234.929,499.451 235.096,500.285 233,501.5C 232.072,498.179 229.905,496.512 226.5,496.5C 226.33,495.178 226.663,494.011 227.5,493C 226.5,492.333 225.5,492.333 224.5,493C 225.791,494.292 225.791,495.458 224.5,496.5C 224.586,495.504 224.252,494.671 223.5,494C 221.721,494.979 220.055,494.646 218.5,493C 219.28,491.927 219.113,490.76 218,489.5C 217.517,490.448 217.351,491.448 217.5,492.5C 216.022,492.762 214.689,492.429 213.5,491.5C 212.5,490.167 211.5,488.833 210.5,487.5C 209.914,487.709 209.414,488.043 209,488.5C 207.988,486.136 206.655,484.802 205,484.5C 204.667,485.5 204.333,486.5 204,487.5C 203.5,485.667 202.333,484.5 200.5,484C 200.833,483.667 201.167,483.333 201.5,483C 199.899,482.727 198.399,482.227 197,481.5C 196.667,481.833 196.333,482.167 196,482.5C 195.576,478.81 194.742,478.643 193.5,482C 193.833,482.333 194.167,482.667 194.5,483C 192.893,482.981 191.226,482.815 189.5,482.5C 189.649,481.448 189.483,480.448 189,479.5C 188.667,479.833 188.333,480.167 188,480.5C 187.218,477.812 185.718,476.812 183.5,477.5C 182.481,476.313 181.314,475.313 180,474.5C 179.374,476.991 178.541,476.991 177.5,474.5C 174.387,473.37 171.387,472.87 168.5,473C 170.835,471.48 170.668,469.98 168,468.5C 167.692,469.308 167.192,469.975 166.5,470.5C 164.228,469.559 162.228,468.226 160.5,466.5C 159.808,467.025 159.308,467.692 159,468.5C 157.592,463.61 156.425,463.277 155.5,467.5C 154.868,465.263 153.535,463.597 151.5,462.5C 150.749,463.376 150.249,464.376 150,465.5C 149.581,464.328 148.915,463.328 148,462.5C 146.951,463.517 145.784,463.684 144.5,463C 142.497,461.666 140.997,460.166 140,458.5C 139.085,459.328 138.419,460.328 138,461.5C 137.316,460.216 137.483,459.049 138.5,458C 137.069,457.535 135.903,456.701 135,455.5C 133.877,454.976 132.544,454.976 131,455.5C 129.036,454.148 126.869,453.314 124.5,453C 125.696,452.346 125.696,451.846 124.5,451.5C 122.998,455.374 122.331,455.041 122.5,450.5C 120.61,450.297 119.11,450.963 118,452.5C 115.904,451.285 116.071,450.451 118.5,450C 117.638,447.266 116.805,447.099 116,449.5C 114.504,447.131 112.67,445.798 110.5,445.5C 109.117,448.076 108.283,447.742 108,444.5C 107.125,446.513 105.791,446.513 104,444.5C 103.667,443.167 103.333,441.833 103,440.5C 102.667,441.167 102.333,441.833 102,442.5C 100.026,442.374 97.859,442.208 95.5,442C 97.9022,440.529 97.7355,439.029 95,437.5C 94.6667,438.167 94.3333,438.833 94,439.5C 93.2588,438.359 92.4255,438.359 91.5,439.5C 91.5105,438.559 91.0105,437.892 90,437.5C 89.228,437.645 88.5613,437.978 88,438.5C 87.7265,436.671 86.8932,435.171 85.5,434C 83.324,433.837 81.4907,433.004 80,431.5C 79.6667,432.167 79.3333,432.833 79,433.5C 77.3155,431.299 75.3155,430.633 73,431.5C 71.54,429.578 69.8733,428.911 68,429.5C 66.3708,428.435 65.2042,427.101 64.5,425.5C 63.6919,425.808 63.0253,426.308 62.5,427C 64.1498,430.485 66.1498,433.651 68.5,436.5C 68.5,437.167 68.5,437.833 68.5,438.5C 58.1053,422.707 50.1053,405.707 44.5,387.5C 37.6271,365.337 33.2938,342.671 31.5,319.5C 32.4584,319.047 33.2917,318.381 34,317.5C 33.2153,320.502 34.3819,322.835 37.5,324.5C 38.086,324.291 38.586,323.957 39,323.5C 39.0976,325.619 39.9309,327.286 41.5,328.5C 41.9976,327.397 42.3309,326.397 42.5,325.5C 45.9688,326.409 49.6354,327.242 53.5,328C 52.5,328.333 51.5,328.667 50.5,329C 52.6785,329.442 53.3452,330.442 52.5,332C 53.7839,332.684 54.9505,332.517 56,331.5C 56.9025,332.701 58.0692,333.535 59.5,334C 58.4652,335.507 58.6319,337.007 60,338.5C 61.5883,336.032 63.4216,335.866 65.5,338C 64.5494,338.718 64.3828,339.551 65,340.5C 66.8445,339.289 67.6778,337.956 67.5,336.5C 69.8537,337.06 72.187,337.727 74.5,338.5C 75.1093,341.837 76.276,342.17 78,339.5C 79.6189,341.583 81.6189,343.25 84,344.5C 85,343.5 86,342.5 87,341.5C 87.1667,342 87.3333,342.5 87.5,343C 85.3978,345.247 86.0645,347.08 89.5,348.5C 90.8625,346.988 91.1958,345.488 90.5,344C 91.6667,343.5 92.5,342.667 93,341.5C 93.5,342.667 94.3333,343.5 95.5,344C 94.552,344.483 93.552,344.649 92.5,344.5C 92.4125,347.598 92.9125,347.932 94,345.5C 95.9646,348.792 98.1312,349.125 100.5,346.5 Z"/></g>
<g><path style="opacity:1" fill="#99a6aa" d="M 495.5,310.5 C 496.865,313.736 497.865,317.069 498.5,320.5C 498.666,327.841 498.5,335.174 498,342.5C 497.796,345.797 496.963,348.797 495.5,351.5C 498.134,337.838 498.134,324.171 495.5,310.5 Z"/></g>
<g><path style="opacity:1" fill="#4b9db6" d="M 29.5,313.5 C 29.8333,313.5 30.1667,313.5 30.5,313.5C 31.3414,315.379 31.6747,317.379 31.5,319.5C 33.2938,342.671 37.6271,365.337 44.5,387.5C 35.4292,363.815 30.4292,339.148 29.5,313.5 Z"/></g>
<g><path style="opacity:1" fill="#93a4aa" d="M 494.5,356.5 C 494.741,358.898 494.074,360.898 492.5,362.5C 492.595,360.214 493.262,358.214 494.5,356.5 Z"/></g>
<g><path style="opacity:1" fill="#9ba6a9" d="M 492.5,362.5 C 491.298,366.578 489.798,370.578 488,374.5C 481.23,385.391 473.063,395.057 463.5,403.5C 454.063,410.05 443.729,414.717 432.5,417.5C 460.794,408.206 480.794,389.872 492.5,362.5 Z"/></g>
<g><path style="opacity:1" fill="#48b4da" d="M 463.5,403.5 C 465.086,404.148 466.753,404.648 468.5,405C 466.524,407.51 466.357,410.01 468,412.5C 470.374,409.712 471.707,410.046 472,413.5C 472.309,412.234 472.809,411.067 473.5,410C 476.389,409.653 478.723,408.653 480.5,407C 480.167,408 479.833,409 479.5,410C 481.5,411 483.5,412 485.5,413C 483.899,413.273 482.399,413.773 481,414.5C 480.619,418.277 481.286,418.277 483,414.5C 483.333,415.167 483.667,415.833 484,416.5C 486.519,411.281 488.519,411.615 490,417.5C 490.333,417.167 490.667,416.833 491,416.5C 494.259,417.717 496.259,420.05 497,423.5C 498.587,422.273 499.921,422.606 501,424.5C 501.368,423.09 502.201,422.09 503.5,421.5C 503.64,422.569 503.64,423.736 503.5,425C 504.744,425.456 505.577,424.956 506,423.5C 506.388,424.428 507.055,425.095 508,425.5C 509.477,424.556 510.477,423.223 511,421.5C 511.667,422.833 512.333,422.833 513,421.5C 513.5,422 514,422.5 514.5,423C 513.655,424.558 514.321,425.558 516.5,426C 513.721,426.149 513.221,426.983 515,428.5C 516.049,427.483 517.216,427.316 518.5,428C 516.699,428.317 516.366,428.984 517.5,430C 520.623,430.206 523.623,430.873 526.5,432C 526.167,433.667 525.833,435.333 525.5,437C 526,437.5 526.5,438 527,438.5C 526.822,436.56 527.822,434.893 530,433.5C 530.21,435.058 530.71,436.391 531.5,437.5C 525.292,449.263 517.625,459.93 508.5,469.5C 507.226,468.811 507.226,467.977 508.5,467C 506.956,466.71 505.623,466.044 504.5,465C 505.833,463.667 505.833,462.333 504.5,461C 509.654,458.794 509.321,457.794 503.5,458C 502.809,459.067 502.309,460.234 502,461.5C 501.667,460.5 501.333,459.5 501,458.5C 498.406,457.538 496.406,455.871 495,453.5C 492.674,454.813 491.341,456.813 491,459.5C 489.264,457.348 489.431,455.014 491.5,452.5C 491.333,452.167 491.167,451.833 491,451.5C 490.085,452.328 489.419,453.328 489,454.5C 487.383,453.464 487.216,452.297 488.5,451C 487,450.167 485.833,449 485,447.5C 485.311,448.935 485.145,450.268 484.5,451.5C 485.025,452.192 485.692,452.692 486.5,453C 485.864,454.356 484.697,455.522 483,456.5C 482.5,456.167 482,455.833 481.5,455.5C 481.846,454.304 482.346,454.304 483,455.5C 483.667,454.5 483.667,453.5 483,452.5C 481.365,451.274 479.865,449.941 478.5,448.5C 478.709,447.914 479.043,447.414 479.5,447C 477.392,446.64 475.392,445.973 473.5,445C 473.833,444.667 474.167,444.333 474.5,444C 473.773,442.601 473.273,441.101 473,439.5C 471.716,440.572 471.383,441.905 472,443.5C 469.49,444.109 467.49,445.442 466,447.5C 465.424,445.623 465.591,443.789 466.5,442C 466.37,440.941 465.87,440.108 465,439.5C 463.417,441.055 461.584,442.222 459.5,443C 461.26,443.965 461.594,445.132 460.5,446.5C 458.879,444.847 457.712,442.847 457,440.5C 456.333,439.167 455.667,439.167 455,440.5C 454.581,439.328 453.915,438.328 453,437.5C 451.234,439.596 449.901,441.929 449,444.5C 448.801,442.598 447.967,441.098 446.5,440C 447.167,439.667 447.833,439.333 448.5,439C 446.806,437.061 444.973,435.228 443,433.5C 442.333,436.167 441.667,436.167 441,433.5C 439.561,435.275 438.561,437.275 438,439.5C 437.779,436.057 436.779,435.724 435,438.5C 432.457,437.124 432.291,435.957 434.5,435C 430.675,433.232 430.675,431.232 434.5,429C 433.833,428.667 433.167,428.333 432.5,428C 435.333,426.167 435.167,424.667 432,423.5C 431.506,425.134 431.34,426.801 431.5,428.5C 430.178,428.67 429.011,428.337 428,427.5C 426.551,428.614 425.217,429.614 424,430.5C 421.876,427.675 419.376,425.175 416.5,423C 416.833,422.667 417.167,422.333 417.5,422C 370.501,421.5 323.501,421.333 276.5,421.5C 240.663,421.832 204.996,421.498 169.5,420.5C 253.501,420.667 337.501,420.5 421.5,420C 425.43,419.758 429.097,418.925 432.5,417.5C 443.729,414.717 454.063,410.05 463.5,403.5 Z"/></g>
<g><path style="opacity:1" fill="#afc2c9" d="M 152.5,416.5 C 155.152,416.41 157.485,417.076 159.5,418.5C 156.848,418.59 154.515,417.924 152.5,416.5 Z"/></g>
<g><path style="opacity:1" fill="#91afba" d="M 160.5,418.5 C 162.861,418.674 165.194,419.007 167.5,419.5C 167.5,419.833 167.5,420.167 167.5,420.5C 164.848,420.59 162.515,419.924 160.5,418.5 Z"/></g>
<g><path style="opacity:1" fill="#c8cbcb" d="M 432.5,417.5 C 429.097,418.925 425.43,419.758 421.5,420C 337.501,420.5 253.501,420.667 169.5,420.5C 168.833,420.5 168.167,420.5 167.5,420.5C 167.5,420.167 167.5,419.833 167.5,419.5C 251.834,419.667 336.167,419.5 420.5,419C 424.491,418.358 428.491,417.858 432.5,417.5 Z"/></g>
<g><path style="opacity:1" fill="#40b4dc" d="M 276.5,421.5 C 323.501,421.333 370.501,421.5 417.5,422C 417.167,422.333 416.833,422.667 416.5,423C 419.376,425.175 421.876,427.675 424,430.5C 425.217,429.614 426.551,428.614 428,427.5C 429.011,428.337 430.178,428.67 431.5,428.5C 431.34,426.801 431.506,425.134 432,423.5C 435.167,424.667 435.333,426.167 432.5,428C 433.167,428.333 433.833,428.667 434.5,429C 430.675,431.232 430.675,433.232 434.5,435C 432.291,435.957 432.457,437.124 435,438.5C 436.779,435.724 437.779,436.057 438,439.5C 438.561,437.275 439.561,435.275 441,433.5C 441.667,436.167 442.333,436.167 443,433.5C 444.973,435.228 446.806,437.061 448.5,439C 447.833,439.333 447.167,439.667 446.5,440C 447.967,441.098 448.801,442.598 449,444.5C 449.901,441.929 451.234,439.596 453,437.5C 453.915,438.328 454.581,439.328 455,440.5C 455.667,439.167 456.333,439.167 457,440.5C 457.712,442.847 458.879,444.847 460.5,446.5C 461.594,445.132 461.26,443.965 459.5,443C 461.584,442.222 463.417,441.055 465,439.5C 465.87,440.108 466.37,440.941 466.5,442C 465.591,443.789 465.424,445.623 466,447.5C 467.49,445.442 469.49,444.109 472,443.5C 471.383,441.905 471.716,440.572 473,439.5C 473.273,441.101 473.773,442.601 474.5,444C 474.167,444.333 473.833,444.667 473.5,445C 475.392,445.973 477.392,446.64 479.5,447C 479.043,447.414 478.709,447.914 478.5,448.5C 479.865,449.941 481.365,451.274 483,452.5C 483.667,453.5 483.667,454.5 483,455.5C 482.346,454.304 481.846,454.304 481.5,455.5C 482,455.833 482.5,456.167 483,456.5C 484.697,455.522 485.864,454.356 486.5,453C 485.692,452.692 485.025,452.192 484.5,451.5C 485.145,450.268 485.311,448.935 485,447.5C 485.833,449 487,450.167 488.5,451C 487.216,452.297 487.383,453.464 489,454.5C 489.419,453.328 490.085,452.328 491,451.5C 491.167,451.833 491.333,452.167 491.5,452.5C 489.431,455.014 489.264,457.348 491,459.5C 491.341,456.813 492.674,454.813 495,453.5C 496.406,455.871 498.406,457.538 501,458.5C 501.333,459.5 501.667,460.5 502,461.5C 502.309,460.234 502.809,459.067 503.5,458C 509.321,457.794 509.654,458.794 504.5,461C 505.833,462.333 505.833,463.667 504.5,465C 505.623,466.044 506.956,466.71 508.5,467C 507.226,467.977 507.226,468.811 508.5,469.5C 498.229,484.106 485.895,496.772 471.5,507.5C 469.955,503.778 468.455,503.778 467,507.5C 466.667,506.5 466.333,505.5 466,504.5C 465.333,505.833 464.667,505.833 464,504.5C 462.956,505.623 462.29,506.956 462,508.5C 461.667,507.5 461.333,506.5 461,505.5C 460,505.833 459,506.167 458,506.5C 455.904,505.285 456.071,504.451 458.5,504C 457.328,503.581 456.328,502.915 455.5,502C 458.544,501.641 458.878,500.974 456.5,500C 458.707,497.016 458.207,496.85 455,499.5C 453.221,496.724 452.221,497.057 452,500.5C 451.333,499.167 450.333,498.167 449,497.5C 448.577,498.956 447.744,499.456 446.5,499C 447.654,498.086 447.487,497.253 446,496.5C 445.581,497.672 444.915,498.672 444,499.5C 442.349,497.598 442.016,495.598 443,493.5C 440.862,493.852 438.696,493.352 436.5,492C 435.809,490.933 435.309,489.766 435,488.5C 434.667,489.5 434.333,490.5 434,491.5C 433.311,490.643 432.478,489.977 431.5,489.5C 429.482,490.813 428.315,490.147 428,487.5C 427.333,490.167 426.667,490.167 426,487.5C 425.101,489.327 423.767,490.66 422,491.5C 421.5,491.167 421,490.833 420.5,490.5C 421.247,490.264 422.08,489.93 423,489.5C 423.982,488.241 424.315,486.908 424,485.5C 422.853,486.458 421.853,486.125 421,484.5C 419.119,485.354 417.286,485.021 415.5,483.5C 414.742,484.811 413.742,485.311 412.5,485C 412.833,484.667 413.167,484.333 413.5,484C 412.151,483.228 411.318,482.061 411,480.5C 410.667,481.167 410.333,481.833 410,482.5C 407.5,480.333 405,478.167 402.5,476C 403.167,475.667 403.833,475.333 404.5,475C 401.21,474.411 399.71,475.911 400,479.5C 399.803,477.484 398.803,475.484 397,473.5C 397.123,475.45 396.123,477.117 394,478.5C 395.151,472.987 393.818,472.321 390,476.5C 389.529,474.754 388.862,473.087 388,471.5C 386.23,472.276 384.397,472.11 382.5,471C 384.929,470.549 385.096,469.715 383,468.5C 381.057,469.315 379.057,470.315 377,471.5C 376.244,469.191 376.744,467.191 378.5,465.5C 375.251,463.778 373.418,464.778 373,468.5C 372.691,467.234 372.191,466.067 371.5,465C 369.413,464.208 367.579,463.041 366,461.5C 365.309,463.891 364.309,463.891 363,461.5C 362.667,463.167 362.333,464.833 362,466.5C 361.5,466 361,465.5 360.5,465C 361.971,462.243 360.971,459.91 357.5,458C 357.833,457.667 358.167,457.333 358.5,457C 357.004,456.493 355.837,456.993 355,458.5C 355.979,456.721 355.646,455.055 354,453.5C 353.487,455.521 352.32,457.021 350.5,458C 352.929,458.451 353.096,459.285 351,460.5C 348.296,458.35 348.129,456.184 350.5,454C 347.615,453.305 344.782,452.472 342,451.5C 339.695,451.484 338.028,452.484 337,454.5C 336.845,452.144 336.845,449.811 337,447.5C 335.128,451.265 334.295,451.265 334.5,447.5C 333.3,448.531 331.966,449.365 330.5,450C 331.654,450.914 331.487,451.747 330,452.5C 328.714,449.595 327.714,446.595 327,443.5C 326.333,444.167 325.667,444.833 325,445.5C 323.701,445.034 322.201,445.034 320.5,445.5C 320.649,446.552 320.483,447.552 320,448.5C 319.642,446.299 318.475,444.132 316.5,442C 317.833,441.333 319.167,440.667 320.5,440C 319.584,439.626 318.75,439.126 318,438.5C 317,439.5 316,440.5 315,441.5C 312.984,441.303 310.984,440.303 309,438.5C 308.667,438.833 308.333,439.167 308,439.5C 309.094,437.406 309.428,435.073 309,432.5C 308.31,435.196 306.81,437.363 304.5,439C 305.167,439.667 305.833,440.333 306.5,441C 301.576,440.768 301.242,439.101 305.5,436C 304.833,435.667 304.167,435.333 303.5,435C 306.333,433.167 306.167,431.667 303,430.5C 302.506,432.134 302.34,433.801 302.5,435.5C 301.178,435.67 300.011,435.337 299,434.5C 298.577,435.956 297.744,436.456 296.5,436C 294.774,433.497 293.941,430.997 294,428.5C 293.683,430.301 293.016,430.634 292,429.5C 291.915,431.085 291.749,432.418 291.5,433.5C 290.636,431.803 289.303,430.637 287.5,430C 288.451,429.282 288.617,428.449 288,427.5C 284.576,430.809 282.742,430.143 282.5,425.5C 281.448,425.649 280.448,425.483 279.5,425C 280.604,423.869 280.271,423.035 278.5,422.5C 278.002,423.603 277.669,424.603 277.5,425.5C 276.571,424.311 276.238,422.978 276.5,421.5 Z"/></g>
<g><path style="opacity:1" fill="#35acdb" d="M 224.5,496.5 C 223.952,497.688 223.619,498.855 223.5,500C 224.833,500.333 226.167,500.667 227.5,501C 227.167,501.333 226.833,501.667 226.5,502C 234.188,505.391 242.022,508.558 250,511.5C 250.945,511.095 251.612,510.428 252,509.5C 253.41,510.787 254.91,511.954 256.5,513C 256.043,513.414 255.709,513.914 255.5,514.5C 257.766,515.314 260.1,515.814 262.5,516C 262.167,516.333 261.833,516.667 261.5,517C 263.5,517.667 265.5,518.333 267.5,519C 269.004,520.491 269.837,522.324 270,524.5C 270.5,524 271,523.5 271.5,523C 270.483,521.951 270.316,520.784 271,519.5C 272,519.167 273,518.833 274,518.5C 273.667,520.167 273.333,521.833 273,523.5C 274.395,522.185 275.395,522.519 276,524.5C 277.081,522.233 278.581,522.066 280.5,524C 277.659,527.566 277.992,528.066 281.5,525.5C 283.271,526.035 283.604,526.869 282.5,528C 284.218,528.346 285.885,528.846 287.5,529.5C 287.998,528.397 288.331,527.397 288.5,526.5C 289.472,528.636 291.139,529.803 293.5,530C 292.167,530.667 292.167,531.333 293.5,532C 291.099,532.805 291.266,533.638 294,534.5C 294.994,532.579 295.827,530.579 296.5,528.5C 297.948,530.667 299.115,533 300,535.5C 299.721,528.976 300.555,528.976 302.5,535.5C 302.911,534.738 303.077,533.738 303,532.5C 303.75,533.126 304.584,533.626 305.5,534C 305.167,534.333 304.833,534.667 304.5,535C 305.448,535.483 306.448,535.649 307.5,535.5C 307.312,537.103 307.812,538.437 309,539.5C 309.333,538.833 309.667,538.167 310,537.5C 311,538.833 312,538.833 313,537.5C 313.617,538.449 313.451,539.282 312.5,540C 313.416,540.374 314.25,540.874 315,541.5C 316.53,540.364 317.863,539.364 319,538.5C 319.5,539 320,539.5 320.5,540C 319.23,542.626 319.896,544.793 322.5,546.5C 323.584,545.335 324.417,544.002 325,542.5C 326,546.5 327,546.5 328,542.5C 329.487,543.253 329.654,544.086 328.5,545C 330.891,545.691 330.891,546.691 328.5,548C 330.417,547.973 332.084,547.139 333.5,545.5C 333.833,545.667 334.167,545.833 334.5,546C 331.888,548.151 331.888,548.985 334.5,548.5C 336.179,549.782 338.013,550.782 340,551.5C 341,550.5 342,549.5 343,548.5C 344.728,550.194 344.228,551.361 341.5,552C 343.39,555.446 344.89,555.279 346,551.5C 347.333,552.833 348.667,554.167 350,555.5C 351.779,552.724 352.779,553.057 353,556.5C 353.333,556.167 353.667,555.833 354,555.5C 355.067,556.191 356.234,556.691 357.5,557C 356.304,557.654 356.304,558.154 357.5,558.5C 362.374,556.077 362.707,556.91 358.5,561C 359.056,561.383 359.389,561.883 359.5,562.5C 317.117,572.085 274.784,571.752 232.5,561.5C 161.762,541.741 107.095,500.741 68.5,438.5C 68.5,437.833 68.5,437.167 68.5,436.5C 69.6256,435.286 70.9589,434.286 72.5,433.5C 74.8146,433.799 74.8146,434.632 72.5,436C 74.295,436.257 76.295,436.923 78.5,438C 77.5,438.333 76.5,438.667 75.5,439C 77.286,439.785 78.786,440.951 80,442.5C 80.3333,442.167 80.6667,441.833 81,441.5C 83.5349,443.799 86.2016,443.799 89,441.5C 89.8651,443.888 89.0317,445.388 86.5,446C 88.492,446.574 89.992,447.741 91,449.5C 91.2492,448.376 91.7492,447.376 92.5,446.5C 94.8537,447.06 97.187,447.727 99.5,448.5C 100.499,452.361 101.665,452.361 103,448.5C 103.582,451.668 104.582,452.001 106,449.5C 106.448,451.224 107.282,451.891 108.5,451.5C 107.164,455.44 107.997,456.106 111,453.5C 113.734,454.362 113.901,455.195 111.5,456C 113.605,459.401 115.272,459.234 116.5,455.5C 117.541,457.991 118.374,457.991 119,455.5C 120.806,458.684 122.806,459.017 125,456.5C 125.333,457.5 125.667,458.5 126,459.5C 127.268,459.384 128.602,459.051 130,458.5C 131.779,460.017 131.279,460.851 128.5,461C 131.023,461.518 133.023,462.852 134.5,465C 136.952,465.29 139.285,465.956 141.5,467C 139.071,467.451 138.904,468.285 141,469.5C 141.667,468.833 142.333,468.167 143,467.5C 143.219,468.938 143.719,470.271 144.5,471.5C 144.749,470.418 144.915,469.085 145,467.5C 146.281,467.381 147.448,467.881 148.5,469C 147.289,469.893 147.289,470.726 148.5,471.5C 149.281,470.271 149.781,468.938 150,467.5C 151.399,468.227 152.899,468.727 154.5,469C 155.641,469.741 155.641,470.575 154.5,471.5C 155.651,472.731 156.817,472.731 158,471.5C 158.5,472.667 159.333,473.5 160.5,474C 159.672,474.915 158.672,475.581 157.5,476C 159.081,476.707 160.581,477.54 162,478.5C 164.768,475.912 166.768,476.245 168,479.5C 168.219,478.062 168.719,476.729 169.5,475.5C 171.087,477.085 171.92,478.752 172,480.5C 172.333,479.833 172.667,479.167 173,478.5C 174.333,479.833 175.667,479.833 177,478.5C 177.915,479.328 178.581,480.328 179,481.5C 179.308,480.692 179.808,480.025 180.5,479.5C 180.109,480.891 180.942,481.891 183,482.5C 184.43,480.433 185.597,480.933 186.5,484C 185.336,486.542 186.336,487.875 189.5,488C 189.167,488.333 188.833,488.667 188.5,489C 190.701,489.825 192.534,489.325 194,487.5C 196,488.167 197.333,489.5 198,491.5C 198.556,489.405 199.056,489.238 199.5,491C 197.488,492.152 197.322,493.318 199,494.5C 201.09,493.206 203.09,492.206 205,491.5C 205.667,494.167 206.333,494.167 207,491.5C 208.581,494.553 210.914,495.22 214,493.5C 215.057,496.173 215.891,498.507 216.5,500.5C 218.422,499.04 219.089,497.373 218.5,495.5C 219.519,496.687 220.686,497.687 222,498.5C 222.417,497.244 223.25,496.577 224.5,496.5 Z"/></g>
<g><path style="opacity:1" fill="#89d4ea" d="M 561.5,232.5 C 580.759,310.77 568.592,383.77 525,451.5C 480.082,515.212 419.249,554.045 342.5,568C 314.833,571.333 287.167,571.333 259.5,568C 250.13,566.765 241.13,564.598 232.5,561.5C 274.784,571.752 317.117,572.085 359.5,562.5C 364.162,561.501 368.829,560.501 373.5,559.5C 409.976,548.934 442.642,531.601 471.5,507.5C 485.895,496.772 498.229,484.106 508.5,469.5C 517.625,459.93 525.292,449.263 531.5,437.5C 548.148,408.897 559.482,378.231 565.5,345.5C 566.312,339.856 566.979,334.19 567.5,328.5C 568.326,323.684 568.826,318.684 569,313.5C 569.836,286.192 567.336,259.192 561.5,232.5 Z"/></g>
<g><path style="opacity:1" fill="#38aedb" d="M 224.5,496.5 C 223.25,496.577 222.417,497.244 222,498.5C 220.686,497.687 219.519,496.687 218.5,495.5C 219.089,497.373 218.422,499.04 216.5,500.5C 215.891,498.507 215.057,496.173 214,493.5C 210.914,495.22 208.581,494.553 207,491.5C 206.333,494.167 205.667,494.167 205,491.5C 203.09,492.206 201.09,493.206 199,494.5C 197.322,493.318 197.488,492.152 199.5,491C 199.056,489.238 198.556,489.405 198,491.5C 197.333,489.5 196,488.167 194,487.5C 192.534,489.325 190.701,489.825 188.5,489C 188.833,488.667 189.167,488.333 189.5,488C 186.336,487.875 185.336,486.542 186.5,484C 185.597,480.933 184.43,480.433 183,482.5C 180.942,481.891 180.109,480.891 180.5,479.5C 179.808,480.025 179.308,480.692 179,481.5C 178.581,480.328 177.915,479.328 177,478.5C 175.667,479.833 174.333,479.833 173,478.5C 172.667,479.167 172.333,479.833 172,480.5C 171.92,478.752 171.087,477.085 169.5,475.5C 168.719,476.729 168.219,478.062 168,479.5C 166.768,476.245 164.768,475.912 162,478.5C 160.581,477.54 159.081,476.707 157.5,476C 158.672,475.581 159.672,474.915 160.5,474C 159.333,473.5 158.5,472.667 158,471.5C 156.817,472.731 155.651,472.731 154.5,471.5C 155.641,470.575 155.641,469.741 154.5,469C 152.899,468.727 151.399,468.227 150,467.5C 149.781,468.938 149.281,470.271 148.5,471.5C 147.289,470.726 147.289,469.893 148.5,469C 147.448,467.881 146.281,467.381 145,467.5C 144.915,469.085 144.749,470.418 144.5,471.5C 143.719,470.271 143.219,468.938 143,467.5C 142.333,468.167 141.667,468.833 141,469.5C 138.904,468.285 139.071,467.451 141.5,467C 139.285,465.956 136.952,465.29 134.5,465C 133.023,462.852 131.023,461.518 128.5,461C 131.279,460.851 131.779,460.017 130,458.5C 128.602,459.051 127.268,459.384 126,459.5C 125.667,458.5 125.333,457.5 125,456.5C 122.806,459.017 120.806,458.684 119,455.5C 118.374,457.991 117.541,457.991 116.5,455.5C 115.272,459.234 113.605,459.401 111.5,456C 113.901,455.195 113.734,454.362 111,453.5C 107.997,456.106 107.164,455.44 108.5,451.5C 107.282,451.891 106.448,451.224 106,449.5C 104.582,452.001 103.582,451.668 103,448.5C 101.665,452.361 100.499,452.361 99.5,448.5C 97.187,447.727 94.8537,447.06 92.5,446.5C 91.7492,447.376 91.2492,448.376 91,449.5C 89.992,447.741 88.492,446.574 86.5,446C 89.0317,445.388 89.8651,443.888 89,441.5C 86.2016,443.799 83.5349,443.799 81,441.5C 80.6667,441.833 80.3333,442.167 80,442.5C 78.786,440.951 77.286,439.785 75.5,439C 76.5,438.667 77.5,438.333 78.5,438C 76.295,436.923 74.295,436.257 72.5,436C 74.8146,434.632 74.8146,433.799 72.5,433.5C 70.9589,434.286 69.6256,435.286 68.5,436.5C 66.1498,433.651 64.1498,430.485 62.5,427C 63.0253,426.308 63.6919,425.808 64.5,425.5C 65.2042,427.101 66.3708,428.435 68,429.5C 69.8733,428.911 71.54,429.578 73,431.5C 75.3155,430.633 77.3155,431.299 79,433.5C 79.3333,432.833 79.6667,432.167 80,431.5C 81.4907,433.004 83.324,433.837 85.5,434C 86.8932,435.171 87.7265,436.671 88,438.5C 88.5613,437.978 89.228,437.645 90,437.5C 91.0105,437.892 91.5105,438.559 91.5,439.5C 92.4255,438.359 93.2588,438.359 94,439.5C 94.3333,438.833 94.6667,438.167 95,437.5C 97.7355,439.029 97.9022,440.529 95.5,442C 97.859,442.208 100.026,442.374 102,442.5C 102.333,441.833 102.667,441.167 103,440.5C 103.333,441.833 103.667,443.167 104,444.5C 105.791,446.513 107.125,446.513 108,444.5C 108.283,447.742 109.117,448.076 110.5,445.5C 112.67,445.798 114.504,447.131 116,449.5C 116.805,447.099 117.638,447.266 118.5,450C 116.071,450.451 115.904,451.285 118,452.5C 119.11,450.963 120.61,450.297 122.5,450.5C 122.331,455.041 122.998,455.374 124.5,451.5C 125.696,451.846 125.696,452.346 124.5,453C 126.869,453.314 129.036,454.148 131,455.5C 132.544,454.976 133.877,454.976 135,455.5C 135.903,456.701 137.069,457.535 138.5,458C 137.483,459.049 137.316,460.216 138,461.5C 138.419,460.328 139.085,459.328 140,458.5C 140.997,460.166 142.497,461.666 144.5,463C 145.784,463.684 146.951,463.517 148,462.5C 148.915,463.328 149.581,464.328 150,465.5C 150.249,464.376 150.749,463.376 151.5,462.5C 153.535,463.597 154.868,465.263 155.5,467.5C 156.425,463.277 157.592,463.61 159,468.5C 159.308,467.692 159.808,467.025 160.5,466.5C 162.228,468.226 164.228,469.559 166.5,470.5C 167.192,469.975 167.692,469.308 168,468.5C 170.668,469.98 170.835,471.48 168.5,473C 171.387,472.87 174.387,473.37 177.5,474.5C 178.541,476.991 179.374,476.991 180,474.5C 181.314,475.313 182.481,476.313 183.5,477.5C 185.718,476.812 187.218,477.812 188,480.5C 188.333,480.167 188.667,479.833 189,479.5C 189.483,480.448 189.649,481.448 189.5,482.5C 191.226,482.815 192.893,482.981 194.5,483C 194.167,482.667 193.833,482.333 193.5,482C 194.742,478.643 195.576,478.81 196,482.5C 196.333,482.167 196.667,481.833 197,481.5C 198.399,482.227 199.899,482.727 201.5,483C 201.167,483.333 200.833,483.667 200.5,484C 202.333,484.5 203.5,485.667 204,487.5C 204.333,486.5 204.667,485.5 205,484.5C 206.655,484.802 207.988,486.136 209,488.5C 209.414,488.043 209.914,487.709 210.5,487.5C 211.5,488.833 212.5,490.167 213.5,491.5C 214.689,492.429 216.022,492.762 217.5,492.5C 217.351,491.448 217.517,490.448 218,489.5C 219.113,490.76 219.28,491.927 218.5,493C 220.055,494.646 221.721,494.979 223.5,494C 224.252,494.671 224.586,495.504 224.5,496.5 Z"/></g>
<g><path style="opacity:1" fill="#43abd3" d="M 86.5,511.5 C 89.7642,513.094 92.4309,515.427 94.5,518.5C 91.2358,516.906 88.5691,514.573 86.5,511.5 Z"/></g>
<g><path style="opacity:1" fill="#38aedb" d="M 373.5,559.5 C 368.829,560.501 364.162,561.501 359.5,562.5C 359.389,561.883 359.056,561.383 358.5,561C 362.707,556.91 362.374,556.077 357.5,558.5C 356.304,558.154 356.304,557.654 357.5,557C 356.234,556.691 355.067,556.191 354,555.5C 353.667,555.833 353.333,556.167 353,556.5C 352.779,553.057 351.779,552.724 350,555.5C 348.667,554.167 347.333,552.833 346,551.5C 344.89,555.279 343.39,555.446 341.5,552C 344.228,551.361 344.728,550.194 343,548.5C 342,549.5 341,550.5 340,551.5C 338.013,550.782 336.179,549.782 334.5,548.5C 331.888,548.985 331.888,548.151 334.5,546C 334.167,545.833 333.833,545.667 333.5,545.5C 332.084,547.139 330.417,547.973 328.5,548C 330.891,546.691 330.891,545.691 328.5,545C 329.654,544.086 329.487,543.253 328,542.5C 327,546.5 326,546.5 325,542.5C 324.417,544.002 323.584,545.335 322.5,546.5C 319.896,544.793 319.23,542.626 320.5,540C 320,539.5 319.5,539 319,538.5C 317.863,539.364 316.53,540.364 315,541.5C 314.25,540.874 313.416,540.374 312.5,540C 313.451,539.282 313.617,538.449 313,537.5C 312,538.833 311,538.833 310,537.5C 309.667,538.167 309.333,538.833 309,539.5C 307.812,538.437 307.312,537.103 307.5,535.5C 306.448,535.649 305.448,535.483 304.5,535C 304.833,534.667 305.167,534.333 305.5,534C 304.584,533.626 303.75,533.126 303,532.5C 303.077,533.738 302.911,534.738 302.5,535.5C 300.555,528.976 299.721,528.976 300,535.5C 299.115,533 297.948,530.667 296.5,528.5C 295.827,530.579 294.994,532.579 294,534.5C 291.266,533.638 291.099,532.805 293.5,532C 292.167,531.333 292.167,530.667 293.5,530C 291.139,529.803 289.472,528.636 288.5,526.5C 288.331,527.397 287.998,528.397 287.5,529.5C 285.885,528.846 284.218,528.346 282.5,528C 283.604,526.869 283.271,526.035 281.5,525.5C 277.992,528.066 277.659,527.566 280.5,524C 278.581,522.066 277.081,522.233 276,524.5C 275.395,522.519 274.395,522.185 273,523.5C 273.333,521.833 273.667,520.167 274,518.5C 273,518.833 272,519.167 271,519.5C 270.316,520.784 270.483,521.951 271.5,523C 271,523.5 270.5,524 270,524.5C 269.837,522.324 269.004,520.491 267.5,519C 265.5,518.333 263.5,517.667 261.5,517C 261.833,516.667 262.167,516.333 262.5,516C 260.1,515.814 257.766,515.314 255.5,514.5C 255.709,513.914 256.043,513.414 256.5,513C 254.91,511.954 253.41,510.787 252,509.5C 251.612,510.428 250.945,511.095 250,511.5C 242.022,508.558 234.188,505.391 226.5,502C 226.833,501.667 227.167,501.333 227.5,501C 226.167,500.667 224.833,500.333 223.5,500C 223.619,498.855 223.952,497.688 224.5,496.5C 225.791,495.458 225.791,494.292 224.5,493C 225.5,492.333 226.5,492.333 227.5,493C 226.663,494.011 226.33,495.178 226.5,496.5C 229.905,496.512 232.072,498.179 233,501.5C 235.096,500.285 234.929,499.451 232.5,499C 233.766,498.691 234.933,498.191 236,497.5C 237.067,498.191 238.234,498.691 239.5,499C 238.167,499.667 238.167,500.333 239.5,501C 240.449,501.617 241.282,501.451 242,500.5C 243.688,501.325 243.855,502.325 242.5,503.5C 243.65,506.32 244.816,506.654 246,504.5C 247.378,506.854 248.878,506.854 250.5,504.5C 252.896,505.829 254.229,507.496 254.5,509.5C 254.109,508.109 254.942,507.109 257,506.5C 258.493,508.662 260.16,510.662 262,512.5C 263.395,511.185 264.395,511.519 265,513.5C 266.714,512.075 268.047,512.408 269,514.5C 270,514.167 271,513.833 272,513.5C 273.099,516.039 274.766,516.705 277,515.5C 278.093,517.349 279.426,519.016 281,520.5C 284.062,518.87 285.729,519.87 286,523.5C 286.667,520.833 287.333,520.833 288,523.5C 289.388,522.446 290.888,522.28 292.5,523C 292.167,523.333 291.833,523.667 291.5,524C 293.402,524.199 294.902,525.033 296,526.5C 296.689,525.643 297.522,524.977 298.5,524.5C 300.22,525.934 302.22,526.767 304.5,527C 304.93,527.92 305.264,528.753 305.5,529.5C 308.635,528.4 311.302,529.233 313.5,532C 312.289,532.893 312.289,533.726 313.5,534.5C 314.5,533.833 315.5,533.167 316.5,532.5C 318.042,533.747 319.542,533.747 321,532.5C 322.452,533.907 322.285,535.407 320.5,537C 321.744,537.456 322.577,536.956 323,535.5C 324.378,537.213 326.045,538.547 328,539.5C 328.667,538.833 329.333,538.167 330,537.5C 330.388,539.715 331.388,541.048 333,541.5C 334.667,541.167 336.333,540.833 338,540.5C 340.32,543.148 342.986,545.481 346,547.5C 346.667,546.167 347.667,545.167 349,544.5C 349.727,547.51 351.56,549.51 354.5,550.5C 354.833,549.833 355.167,549.167 355.5,548.5C 357.5,550.167 359.5,551.833 361.5,553.5C 364.151,552.211 366.484,552.711 368.5,555C 367.549,555.718 367.383,556.551 368,557.5C 368.915,556.672 369.581,555.672 370,554.5C 371.03,556.126 372.196,557.793 373.5,559.5 Z"/></g>
<g><path style="opacity:1" fill="#398ca4" d="M 599.5,283.5 C 599.5,297.167 599.5,310.833 599.5,324.5C 585.777,440.017 526.777,523.184 422.5,574C 391.018,587.536 358.352,596.036 324.5,599.5C 310.5,599.5 296.5,599.5 282.5,599.5C 282.5,599.167 282.5,598.833 282.5,598.5C 357.27,601.073 424.27,579.906 483.5,535C 561.571,471.001 599.904,388.167 598.5,286.5C 598.263,285.209 598.596,284.209 599.5,283.5 Z"/></g>
<g><path style="opacity:1" fill="#3b9dc1" d="M 151.5,560.5 C 155.655,561.742 159.322,563.742 162.5,566.5C 158.345,565.258 154.678,563.258 151.5,560.5 Z"/></g>
<g><path style="opacity:1" fill="#3894b3" d="M 168.5,569.5 C 204.738,586.06 242.738,595.726 282.5,598.5C 282.5,598.833 282.5,599.167 282.5,599.5C 279.833,599.5 277.167,599.5 274.5,599.5C 243.244,596.27 212.911,588.77 183.5,577C 178.16,574.997 173.16,572.497 168.5,569.5 Z"/></g>
</svg>
