<?xml version="1.0" standalone="no"?>
<!DOCTYPE svg PUBLIC "-//W3C//DTD SVG 20010904//EN"
 "http://www.w3.org/TR/2001/REC-SVG-20010904/DTD/svg10.dtd">
<svg version="1.0" xmlns="http://www.w3.org/2000/svg"
 width="600.000000pt" height="600.000000pt" viewBox="0 0 600.000000 600.000000"
 preserveAspectRatio="xMidYMid meet">

<g transform="translate(0.000000,600.000000) scale(0.100000,-0.100000)"
fill="#000000" stroke="none">
<path d="M2331 5224 c0 -11 3 -14 6 -6 3 7 2 16 -1 19 -3 4 -6 -2 -5 -13z"/>
<path d="M1818 4843 c106 -2 277 -2 380 0 103 1 16 2 -193 2 -209 0 -293 -1
-187 -2z"/>
<path d="M3818 4843 c105 -2 279 -2 385 0 105 1 19 2 -193 2 -212 0 -298 -1
-192 -2z"/>
<path d="M1483 4833 c9 -2 25 -2 35 0 9 3 1 5 -18 5 -19 0 -27 -2 -17 -5z"/>
<path d="M4488 4833 c12 -2 30 -2 40 0 9 3 -1 5 -23 4 -22 0 -30 -2 -17 -4z"/>
<path d="M1408 4823 c6 -2 18 -2 25 0 6 3 1 5 -13 5 -14 0 -19 -2 -12 -5z"/>
<path d="M4573 4823 c9 -2 23 -2 30 0 6 3 -1 5 -18 5 -16 0 -22 -2 -12 -5z"/>
<path d="M1368 4813 c7 -3 16 -2 19 1 4 3 -2 6 -13 5 -11 0 -14 -3 -6 -6z"/>
<path d="M4628 4813 c7 -3 16 -2 19 1 4 3 -2 6 -13 5 -11 0 -14 -3 -6 -6z"/>
<path d="M1260 4778 c-120 -59 -244 -209 -264 -318 -4 -23 2 -13 18 28 53 139
162 251 296 303 25 10 38 18 29 19 -9 0 -44 -14 -79 -32z"/>
<path d="M4726 4776 c103 -49 194 -138 244 -238 22 -44 40 -75 40 -69 0 37
-69 149 -129 210 -61 61 -174 131 -212 131 -8 0 18 -15 57 -34z"/>
<path d="M5017 4415 c3 -22 7 -42 9 -44 8 -9 2 45 -6 64 -7 14 -8 8 -3 -20z"/>
<path d="M981 4404 c0 -11 3 -14 6 -6 3 7 2 16 -1 19 -3 4 -6 -2 -5 -13z"/>
<path d="M973 4335 c0 -22 2 -30 4 -17 2 12 2 30 0 40 -3 9 -5 -1 -4 -23z"/>
<path d="M5032 4320 c0 -19 2 -27 5 -17 2 9 2 25 0 35 -3 9 -5 1 -5 -18z"/>
<path d="M964 4205 c0 -49 1 -71 3 -48 2 23 2 64 0 90 -2 26 -3 8 -3 -42z"/>
<path d="M5045 2600 c0 -899 1 -1267 2 -817 2 449 2 1185 0 1635 -1 449 -2 81
-2 -818z"/>
<path d="M1795 4171 c-80 -21 -134 -72 -154 -146 -18 -64 -14 -342 5 -398 18
-55 79 -112 133 -127 50 -14 350 -13 392 1 51 18 97 55 122 102 20 39 22 55
22 227 0 179 -1 187 -26 235 -18 35 -39 59 -74 80 l-48 30 -171 2 c-94 1 -184
-2 -201 -6z m368 -104 c57 -37 62 -57 62 -232 0 -243 -11 -254 -250 -254 -156
0 -197 10 -229 52 -19 26 -21 42 -21 200 0 149 2 176 18 198 33 49 75 58 258
56 110 -2 140 -6 162 -20z"/>
<path d="M1874 3981 c-43 -19 -54 -49 -54 -151 1 -99 7 -117 47 -138 28 -15
185 -15 218 0 35 16 48 67 44 166 -6 115 -18 126 -142 129 -50 2 -102 -1 -113
-6z"/>
<path d="M2496 4159 c-22 -32 -6 -63 33 -67 25 -3 33 2 43 22 9 22 8 29 -7 46
-23 26 -50 25 -69 -1z"/>
<path d="M2690 4165 c-7 -8 -16 -30 -19 -48 -6 -26 -12 -33 -36 -35 -39 -5
-55 -19 -55 -48 0 -26 10 -35 54 -44 29 -5 31 -9 31 -50 0 -48 -13 -58 -61
-46 -18 5 -24 13 -24 35 0 30 -27 61 -52 61 -21 0 -39 -24 -47 -63 -6 -26 -12
-33 -36 -35 -17 -2 -36 -8 -42 -14 -17 -14 -17 -140 -1 -156 17 -17 242 -17
256 1 6 6 12 26 14 42 2 25 8 31 33 33 40 5 65 29 65 63 0 23 5 30 28 34 45
10 57 21 57 51 0 28 -6 32 -72 50 -8 2 -13 20 -13 43 0 36 3 41 28 46 15 4 34
10 42 14 22 12 25 53 4 68 -26 19 -138 17 -154 -2z"/>
<path d="M3070 4165 c-7 -8 -16 -30 -19 -48 -6 -27 -12 -32 -38 -35 -17 -2
-36 -9 -42 -16 -6 -7 -12 -68 -13 -137 l-3 -124 -83 -5 c-59 -4 -86 -9 -92
-20 -5 -8 -10 -65 -10 -126 0 -120 7 -139 51 -132 24 3 35 18 44 61 5 26 9 28
48 25 38 -3 42 -6 45 -33 5 -40 19 -55 53 -55 36 0 38 10 42 160 l2 115 133 5
c103 4 135 8 142 20 21 32 0 70 -38 70 -35 0 -52 17 -52 52 0 54 -75 63 -86
10 -9 -44 -20 -57 -51 -60 -38 -4 -55 17 -51 60 3 28 7 33 33 36 51 6 65 27
65 97 0 47 -4 66 -18 78 -23 21 -46 22 -62 2z"/>
<path d="M3355 4164 c-32 -32 -12 -66 48 -79 26 -5 27 -7 27 -78 0 -82 11
-104 54 -109 31 -3 41 -16 51 -60 3 -19 14 -30 30 -34 50 -13 55 3 55 187 0
156 -1 169 -19 179 -11 5 -67 10 -125 10 -83 0 -108 -3 -121 -16z"/>
<path d="M3851 4170 c-74 -17 -136 -89 -152 -175 -6 -35 -9 -122 -7 -207 4
-141 5 -148 34 -194 21 -35 44 -56 83 -76 52 -27 57 -28 220 -28 187 0 226 8
278 53 65 57 73 88 73 292 0 154 -3 186 -19 221 -25 54 -83 101 -143 114 -56
12 -316 12 -367 0z m384 -104 c46 -30 55 -69 55 -238 0 -238 -15 -252 -269
-246 -230 5 -231 6 -231 258 l0 170 28 31 c37 42 73 49 243 46 121 -3 151 -6
174 -21z"/>
<path d="M3935 3980 c-43 -17 -50 -38 -50 -147 0 -102 1 -105 28 -129 26 -22
37 -24 128 -24 93 0 102 2 124 25 23 22 25 31 25 124 0 116 -3 127 -41 146
-31 16 -179 20 -214 5z"/>
<path d="M962 4080 c0 -19 2 -27 5 -17 2 9 2 25 0 35 -3 9 -5 1 -5 -18z"/>
<path d="M2400 4065 c-31 -38 27 -96 65 -65 18 15 20 51 3 68 -17 17 -53 15
-68 -3z"/>
<path d="M964 3750 c0 -140 2 -198 3 -127 2 70 2 184 0 255 -1 70 -3 12 -3
-128z"/>
<path d="M3356 3784 c-19 -18 -21 -45 -4 -62 7 -7 42 -12 85 -12 69 0 74 2 85
25 9 21 8 28 -7 45 -24 26 -135 29 -159 4z"/>
<path d="M2406 3594 c-20 -20 -23 -233 -4 -252 7 -7 41 -12 83 -12 42 0 76 5
83 12 29 29 0 74 -53 80 l-30 3 -3 80 c-2 61 -7 83 -19 93 -22 16 -38 15 -57
-4z"/>
<path d="M2598 3599 c-15 -8 -18 -24 -18 -82 0 -77 9 -97 45 -97 36 0 45 20
45 97 0 61 -3 74 -19 83 -24 12 -31 12 -53 -1z"/>
<path d="M3166 3594 c-9 -8 -16 -28 -16 -44 0 -29 -15 -40 -55 -40 -35 0 -51
-34 -30 -66 15 -24 17 -24 178 -24 113 0 167 4 175 12 7 7 12 41 12 85 0 61
-3 74 -19 83 -11 5 -24 10 -30 10 -19 0 -41 -32 -41 -60 0 -29 -15 -40 -54
-40 -30 0 -46 18 -46 52 0 42 -45 62 -74 32z"/>
<path d="M3546 3594 c-30 -30 -13 -74 29 -74 44 0 63 60 26 80 -27 14 -37 13
-55 -6z"/>
<path d="M2877 3503 c-4 -3 -7 -16 -7 -29 0 -50 -7 -54 -91 -54 -72 0 -80 -2
-94 -24 -20 -30 -5 -66 26 -66 34 0 59 -19 59 -45 0 -30 25 -55 54 -55 29 0
43 -16 48 -55 2 -24 8 -31 31 -33 47 -6 57 12 57 98 l0 78 40 7 c31 5 41 12
46 31 9 35 -1 53 -33 60 -50 10 -53 13 -53 42 0 15 -5 33 -12 40 -13 13 -60
16 -71 5z"/>
<path d="M964 3265 c0 -126 2 -177 3 -112 2 65 2 168 0 230 -1 62 -3 9 -3
-118z"/>
<path d="M1742 3408 c-18 -18 -16 -152 3 -168 21 -17 61 -4 69 22 11 42 6 113
-10 136 -17 24 -43 29 -62 10z"/>
<path d="M1925 3396 c-21 -31 -5 -66 28 -66 33 0 55 -21 59 -55 3 -29 10 -34
76 -51 8 -2 12 -26 12 -73 0 -84 20 -118 63 -107 22 5 28 14 33 46 5 32 11 40
28 40 33 0 66 28 66 55 0 27 -26 45 -64 45 -24 0 -26 3 -26 44 0 42 2 45 33
51 17 4 38 12 45 17 19 16 14 56 -7 68 -11 6 -87 10 -175 10 -154 0 -156 0
-171 -24z"/>
<path d="M3546 3404 c-9 -8 -16 -24 -16 -33 0 -36 23 -42 151 -39 l124 3 3 30
c6 46 -17 55 -139 55 -84 0 -111 -3 -123 -16z"/>
<path d="M3926 3404 c-9 -8 -16 -25 -16 -38 0 -30 -18 -46 -52 -46 -66 0 -53
-85 14 -92 29 -3 34 -7 38 -37 3 -19 14 -40 26 -48 19 -12 24 -11 44 5 12 10
24 29 25 43 1 13 3 28 4 32 0 5 20 7 44 5 39 -3 42 -5 47 -37 6 -41 35 -63 68
-50 14 5 22 17 22 33 0 41 11 56 40 56 43 0 60 28 60 97 0 47 -4 64 -20 78
-27 24 -67 7 -76 -32 -10 -49 -13 -53 -38 -53 -41 0 -56 11 -56 40 0 43 -28
60 -98 60 -42 0 -65 -5 -76 -16z"/>
<path d="M2298 3295 c-9 -21 -8 -28 7 -45 10 -11 26 -20 35 -20 9 0 25 9 35
20 27 30 7 70 -35 70 -23 0 -33 -6 -42 -25z"/>
<path d="M3352 3308 c-17 -17 -15 -44 4 -62 24 -25 135 -22 159 4 15 17 16 24
7 45 -11 23 -16 25 -85 25 -43 0 -78 -5 -85 -12z"/>
<path d="M1838 3219 c-10 -5 -18 -20 -18 -33 0 -34 26 -52 78 -55 10 -1 12
-42 10 -188 l-3 -188 -30 -3 c-38 -5 -55 -19 -55 -47 0 -28 17 -42 55 -47 28
-3 30 -5 30 -48 l0 -45 -78 -3 c-88 -3 -107 5 -107 49 0 43 -45 63 -74 33 -14
-13 -16 -48 -16 -224 0 -254 -8 -240 146 -240 112 0 129 8 136 65 2 25 8 30
34 33 49 5 63 28 66 112 l3 75 40 0 c37 0 40 -2 46 -35 10 -45 32 -60 94 -60
59 0 95 21 95 55 0 27 -26 45 -64 45 -22 0 -26 5 -26 28 0 51 -17 61 -105 64
l-80 3 0 45 c0 43 2 45 30 48 40 5 53 17 57 55 l3 32 76 5 c82 5 109 19 109
56 0 26 -26 44 -64 44 -22 0 -26 5 -26 28 0 51 -17 61 -105 64 l-80 3 -3 125
c-3 153 -8 160 -96 160 -34 0 -69 -5 -78 -11z m67 -799 c0 -44 -1 -45 -35 -48
-38 -4 -60 16 -60 53 0 31 21 46 60 43 34 -3 35 -4 35 -48z"/>
<path d="M2406 3214 c-9 -8 -16 -25 -16 -38 0 -30 -18 -46 -51 -46 -31 0 -39
-9 -48 -54 -5 -24 -13 -32 -37 -37 -44 -8 -54 -17 -54 -43 0 -29 17 -44 58
-52 27 -5 32 -11 32 -34 0 -29 27 -60 52 -60 32 0 47 34 50 110 l3 75 32 3
c38 4 50 17 55 57 3 28 5 30 48 30 l45 0 0 -40 c0 -38 -2 -40 -33 -43 -41 -4
-69 -41 -53 -70 6 -11 28 -24 48 -29 l38 -9 3 -124 c1 -70 7 -129 14 -137 14
-17 52 -17 67 0 7 9 12 92 13 232 l3 219 38 9 c50 12 69 47 42 77 -17 18 -31
20 -176 20 -130 0 -160 -3 -173 -16z"/>
<path d="M3166 3214 c-19 -19 -21 -48 -3 -62 18 -15 112 -23 141 -12 33 12 43
46 20 71 -23 25 -134 28 -158 3z"/>
<path d="M3637 3209 c-19 -26 -10 -58 17 -68 24 -8 119 -6 141 3 22 8 19 63
-4 76 -11 5 -47 10 -80 10 -49 0 -62 -4 -74 -21z"/>
<path d="M1642 3118 c-7 -7 -12 -21 -12 -33 0 -35 20 -45 90 -45 85 0 108 17
89 68 -8 20 -15 22 -82 22 -43 0 -78 -5 -85 -12z"/>
<path d="M3446 3115 c-9 -9 -16 -22 -16 -29 0 -20 32 -44 65 -48 l30 -3 5 -83
c5 -84 14 -101 51 -102 22 0 37 19 41 55 3 28 5 30 48 30 41 0 45 -2 50 -31 9
-43 18 -54 44 -54 37 0 46 19 46 97 0 87 -6 93 -109 93 -69 0 -71 1 -76 28
-12 53 -18 57 -92 60 -55 2 -74 -1 -87 -13z"/>
<path d="M3820 3109 c-9 -16 -8 -26 5 -45 19 -29 46 -31 70 -4 15 17 16 24 7
45 -15 32 -66 35 -82 4z"/>
<path d="M4023 3123 c-18 -7 -16 -58 2 -73 22 -19 64 -4 71 25 10 42 -27 67
-73 48z"/>
<path d="M4302 3118 c-21 -21 -14 -57 14 -70 31 -14 57 -1 62 31 7 42 -46 69
-76 39z"/>
<path d="M2885 3056 c-56 -26 -117 -88 -140 -142 -9 -22 -15 -67 -15 -113 0
-66 4 -83 30 -127 57 -101 151 -151 264 -142 73 6 128 32 177 85 59 62 73 97
73 188 0 92 -18 137 -81 197 -82 80 -207 102 -308 54z m245 -153 c0 -50 -29
-206 -40 -217 -12 -12 -56 9 -105 49 l-30 24 48 47 c71 69 64 69 -43 -3 -39
-26 -87 -30 -116 -9 -18 14 -16 16 29 36 113 50 233 99 245 100 7 0 12 -12 12
-27z"/>
<path d="M3356 3024 c-13 -12 -16 -39 -16 -129 0 -106 1 -115 22 -129 25 -18
94 -21 131 -7 56 22 37 87 -27 93 l-31 3 -3 80 c-2 61 -7 83 -19 93 -22 16
-38 15 -57 -4z"/>
<path d="M4117 3022 c-23 -25 -24 -134 -1 -156 33 -33 70 -15 76 38 2 25 9 31
38 39 62 16 78 47 42 80 -27 25 -133 23 -155 -1z"/>
<path d="M965 2635 c0 -220 1 -309 2 -197 2 112 2 292 0 400 -1 108 -2 17 -2
-203z"/>
<path d="M3921 2926 c-20 -24 -5 -65 26 -72 20 -6 31 -2 45 16 16 20 17 25 5
44 -18 26 -59 32 -76 12z"/>
<path d="M4302 2928 c-7 -7 -12 -43 -12 -90 0 -91 0 -91 -115 -86 l-70 3 -3
31 c-4 46 -35 71 -67 56 -18 -8 -25 -19 -25 -40 0 -35 -16 -52 -51 -52 -56 0
-66 -74 -11 -85 44 -10 57 -20 60 -49 4 -35 -13 -56 -47 -56 -48 0 -68 -42
-35 -74 12 -13 39 -16 128 -16 118 0 136 6 136 46 0 27 -17 41 -55 46 -28 3
-30 5 -30 48 l0 45 124 3 c71 1 130 7 138 14 9 7 13 43 13 127 0 123 -6 141
-45 141 -12 0 -26 -5 -33 -12z"/>
<path d="M1645 2834 c-21 -21 -16 -53 10 -70 18 -12 24 -11 43 2 27 19 29 60
3 74 -27 14 -37 13 -56 -6z"/>
<path d="M3842 2843 c-22 -9 -34 -41 -23 -62 15 -28 49 -33 72 -10 24 24 24
41 1 62 -19 17 -28 19 -50 10z"/>
<path d="M2312 2741 c-8 -5 -17 -23 -21 -42 -5 -27 -13 -35 -37 -40 -44 -8
-54 -17 -54 -44 0 -35 36 -55 97 -55 73 0 93 21 93 96 0 30 -5 64 -10 75 -11
20 -45 25 -68 10z"/>
<path d="M3356 2644 c-22 -22 -20 -50 5 -68 22 -15 48 -11 61 8 14 21 8 55
-11 66 -27 14 -37 13 -55 -6z"/>
<path d="M3546 2644 c-9 -8 -16 -25 -16 -38 0 -12 -5 -27 -12 -34 -7 -7 -22
-12 -34 -12 -38 0 -54 -26 -54 -89 0 -67 12 -86 60 -99 33 -8 35 -11 35 -47 0
-36 -2 -40 -33 -46 -42 -9 -52 -19 -61 -61 -6 -31 -10 -33 -46 -33 -37 0 -40
2 -43 30 -5 40 -27 63 -66 67 l-31 3 -3 80 c-3 80 -14 105 -48 105 -22 0 -44
-30 -44 -61 0 -23 -5 -30 -27 -35 -54 -12 -61 -15 -67 -31 -10 -26 20 -61 56
-65 29 -3 33 -7 36 -35 4 -36 33 -63 69 -63 18 0 23 -6 23 -24 0 -48 28 -65
110 -68 l75 -3 0 -45 c0 -44 -1 -45 -34 -50 -43 -6 -59 -29 -43 -64 8 -18 20
-26 44 -28 28 -3 33 -8 39 -38 12 -56 24 -60 211 -60 l168 0 0 -73 c0 -84 11
-106 60 -116 33 -6 35 -9 35 -46 l0 -40 -83 -5 c-85 -5 -102 -14 -102 -52 0
-35 39 -48 143 -48 106 0 137 9 137 41 0 49 16 59 94 59 80 0 92 7 98 55 3 28
5 30 48 30 44 0 45 -1 50 -35 4 -26 11 -37 32 -44 45 -16 58 5 58 90 0 78 -3
83 -54 93 -24 5 -32 13 -37 37 -10 53 -12 54 -138 54 -123 0 -141 -6 -141 -46
0 -27 17 -41 55 -46 28 -3 30 -5 30 -48 0 -44 -1 -45 -33 -48 -41 -4 -59 10
-59 44 0 32 -13 44 -55 53 -30 6 -33 10 -36 47 -3 41 -3 41 38 48 41 6 52 18
54 58 1 23 16 34 58 43 19 3 30 14 34 30 8 33 -10 53 -49 57 -24 2 -34 9 -41
31 -15 41 2 62 50 62 37 0 39 -2 44 -34 6 -41 35 -63 68 -50 14 5 22 17 22 33
0 40 11 56 39 56 48 0 56 13 61 102 l5 83 30 3 c48 6 55 18 55 98 0 62 -3 75
-19 84 -11 5 -24 10 -30 10 -19 0 -41 -32 -41 -60 0 -35 -13 -40 -100 -40 -74
0 -86 -7 -92 -55 l-3 -30 -90 0 -89 0 -6 31 c-11 53 -13 54 -144 54 -131 0
-146 5 -146 50 0 41 17 50 95 50 75 0 95 9 95 45 0 36 -20 45 -95 45 -78 0
-95 9 -95 52 0 42 -45 62 -74 32z m353 -468 c8 -9 11 -56 9 -142 l-3 -129
-140 0 -140 0 -3 130 c-2 113 0 131 15 142 25 19 247 18 262 -1z"/>
<path d="M3739 2071 c-21 -17 -22 -22 -11 -45 10 -23 18 -27 45 -24 27 3 32 7
35 33 3 19 -2 33 -14 42 -23 17 -27 17 -55 -6z"/>
<path d="M3842 2653 c-22 -9 -34 -41 -23 -62 15 -28 49 -33 72 -10 24 24 24
41 1 62 -19 17 -28 19 -50 10z"/>
<path d="M2492 2536 c-15 -33 8 -64 51 -68 l32 -3 0 -90 0 -90 -88 -3 c-65 -2
-88 1 -91 10 -17 64 -23 73 -46 76 -35 3 -51 -10 -59 -49 -5 -27 -13 -35 -37
-40 -44 -8 -54 -17 -54 -43 0 -37 27 -51 109 -56 76 -5 76 -5 79 -35 6 -48 18
-55 93 -55 77 0 99 14 99 61 0 24 4 29 23 29 36 0 65 27 69 63 3 31 5 32 48
32 44 0 45 -1 48 -33 4 -42 -12 -62 -49 -62 -22 0 -32 -7 -41 -25 -15 -32 10
-63 56 -67 27 -3 31 -7 34 -35 4 -36 33 -63 69 -63 17 0 24 -7 28 -27 12 -53
18 -58 89 -61 74 -3 96 7 96 43 0 28 -17 42 -55 47 -28 3 -30 5 -30 48 0 45 0
45 38 48 39 3 40 2 51 -50 9 -39 41 -54 72 -33 21 14 24 23 24 78 0 88 -8 96
-105 99 l-80 3 -3 91 -3 91 40 7 c39 6 51 20 51 56 0 31 -32 40 -144 40 -113
0 -136 -9 -136 -54 0 -29 -18 -46 -50 -46 -41 0 -50 17 -50 95 0 42 -5 76 -12
83 -7 7 -41 12 -83 12 -66 0 -73 -2 -83 -24z"/>
<path d="M2025 2264 c-21 -21 -16 -53 10 -70 18 -12 24 -11 43 2 27 19 29 60
3 74 -27 14 -37 13 -56 -6z"/>
<path d="M964 1980 c0 -124 2 -174 3 -112 2 61 2 163 0 225 -1 61 -3 11 -3
-113z"/>
<path d="M1755 2091 c-52 -23 -101 -80 -115 -132 -7 -26 -10 -107 -8 -213 3
-159 5 -174 27 -213 53 -93 141 -119 366 -111 143 6 174 15 233 71 49 47 62
105 62 274 0 166 -10 216 -53 268 -54 66 -87 75 -292 75 -153 0 -186 -3 -220
-19z m416 -94 c44 -29 57 -79 58 -219 1 -132 -12 -198 -45 -229 -25 -23 -30
-24 -210 -24 l-184 0 -32 33 -33 32 0 174 c0 162 2 177 21 203 36 48 56 53
230 53 151 0 163 -1 195 -23z"/>
<path d="M1845 1895 c-23 -22 -25 -31 -25 -125 0 -94 2 -103 25 -125 13 -14
34 -25 47 -26 227 -6 238 1 238 156 0 72 -15 121 -40 135 -10 6 -64 10 -120
10 -94 0 -103 -2 -125 -25z"/>
<path d="M2402 1978 c-8 -8 -12 -51 -12 -128 0 -122 6 -140 46 -140 27 0 41
17 46 55 l3 30 93 3 92 3 0 -46 c0 -42 -2 -45 -26 -45 -54 0 -64 -14 -64 -93
0 -78 9 -97 46 -97 27 0 41 17 46 55 l3 30 126 5 c130 5 159 14 159 50 0 31
-31 45 -109 50 l-76 5 -3 41 c-3 41 -3 41 37 48 32 5 42 11 47 31 9 36 -1 53
-33 61 -49 10 -53 13 -53 34 0 38 -19 60 -50 60 -33 0 -50 -23 -50 -65 l0 -26
-92 3 -93 3 -3 30 c-2 17 -8 36 -14 43 -13 15 -50 16 -66 0z"/>
<path d="M4214 1982 c-38 -26 -7 -90 39 -78 30 7 43 37 27 66 -11 20 -45 26
-66 12z"/>
<path d="M3260 1880 c-11 -11 -20 -24 -20 -30 0 -12 37 -50 48 -50 17 0 52 32
52 49 0 20 -30 51 -48 51 -7 0 -21 -9 -32 -20z"/>
<path d="M3354 1788 c-4 -6 -10 -25 -13 -42 -6 -25 -13 -32 -41 -37 -31 -7
-60 -31 -60 -51 0 -4 9 -17 20 -28 26 -26 130 -29 154 -4 20 19 22 144 4 162
-15 15 -55 16 -64 0z"/>
<path d="M962 1730 c0 -14 2 -19 5 -12 2 6 2 18 0 25 -3 6 -5 1 -5 -13z"/>
<path d="M3070 1690 c-11 -11 -20 -24 -20 -30 0 -12 37 -50 48 -50 17 0 52 32
52 49 0 20 -30 51 -48 51 -7 0 -21 -9 -32 -20z"/>
<path d="M3547 1692 c-10 -10 -17 -26 -17 -35 0 -20 38 -47 67 -47 21 0 28
-10 24 -34 -3 -17 30 -56 49 -56 35 0 50 27 50 94 0 82 -14 96 -97 96 -45 0
-64 -4 -76 -18z"/>
<path d="M964 1595 c0 -55 1 -76 3 -47 2 29 2 74 0 100 -2 26 -3 2 -3 -53z"/>
<path d="M2402 1598 c-7 -7 -12 -21 -12 -33 0 -12 5 -26 12 -33 7 -7 21 -12
33 -12 12 0 26 5 33 12 7 7 12 21 12 33 0 12 -5 26 -12 33 -7 7 -21 12 -33 12
-12 0 -26 -5 -33 -12z"/>
<path d="M2972 1598 c-6 -7 -12 -26 -14 -43 -2 -24 -9 -30 -34 -36 -45 -9 -54
-17 -54 -49 0 -42 23 -50 137 -50 73 0 104 4 121 16 42 29 17 79 -43 86 -25 2
-31 8 -33 33 -5 38 -19 55 -47 55 -12 0 -27 -6 -33 -12z"/>
<path d="M3162 1598 c-28 -28 -7 -78 33 -78 27 0 45 18 45 45 0 27 -18 45 -45
45 -12 0 -26 -5 -33 -12z"/>
<path d="M3450 1500 c-11 -11 -20 -24 -20 -30 0 -5 9 -19 20 -30 15 -15 33
-20 76 -20 71 0 94 12 94 50 0 38 -23 50 -94 50 -43 0 -61 -5 -76 -20z"/>
<path d="M964 1365 c0 -66 1 -92 3 -57 2 34 2 88 0 120 -2 31 -3 3 -3 -63z"/>
<path d="M963 1200 c0 -25 2 -35 4 -22 2 12 2 32 0 45 -2 12 -4 2 -4 -23z"/>
<path d="M964 1035 c0 -66 1 -92 3 -57 2 34 2 88 0 120 -2 31 -3 3 -3 -63z"/>
<path d="M1563 991 c-41 -26 -53 -49 -53 -104 0 -73 56 -122 131 -115 48 4 42
22 -8 26 -122 9 -127 182 -5 182 55 0 84 -26 86 -75 0 -22 -4 -40 -11 -42 -9
-3 -13 8 -13 36 0 43 -13 59 -34 42 -9 -7 -16 -7 -23 0 -17 17 -52 0 -59 -28
-15 -57 32 -105 71 -73 9 7 15 8 20 0 10 -16 43 -12 65 10 30 30 26 83 -8 121
-37 42 -110 51 -159 20z m81 -114 c-3 -9 -10 -17 -15 -17 -14 0 -22 27 -15 47
6 15 8 15 22 2 8 -9 12 -23 8 -32z"/>
<path d="M1825 998 c-44 -25 -60 -74 -44 -132 12 -45 42 -66 95 -66 47 0 94
30 94 61 0 32 -28 34 -60 4 -24 -23 -31 -25 -50 -15 -18 9 -21 19 -18 58 3 41
6 47 26 50 15 2 33 -5 47 -18 47 -44 76 0 30 45 -27 28 -84 33 -120 13z"/>
<path d="M2014 997 c-3 -8 -4 -54 -2 -103 l3 -89 63 -3 c50 -2 63 0 69 14 7
20 -13 34 -49 34 -28 0 -28 1 -28 68 0 67 -10 92 -37 92 -8 0 -16 -6 -19 -13z"/>
<path d="M2213 998 c-32 -16 -56 -73 -48 -115 10 -55 45 -83 102 -83 72 1 103
34 103 110 0 78 -82 124 -157 88z m85 -50 c19 -19 14 -73 -7 -92 -39 -36 -84
24 -59 78 12 28 45 35 66 14z"/>
<path d="M2404 985 c-3 -14 -4 -53 -2 -87 5 -74 28 -98 93 -98 64 0 85 22 92
97 8 83 -1 115 -30 111 -19 -3 -22 -10 -25 -58 -4 -86 -9 -100 -37 -100 -24 0
-25 3 -25 61 0 33 -5 69 -10 80 -15 28 -48 24 -56 -6z"/>
<path d="M2635 998 c-3 -8 -5 -55 -3 -104 l3 -89 44 -3 c94 -7 131 23 131 103
0 71 -28 97 -110 103 -46 3 -61 1 -65 -10z m103 -50 c7 -7 12 -26 12 -43 0
-37 -16 -55 -47 -55 -21 0 -23 4 -23 55 0 51 2 55 23 55 13 0 28 -5 35 -12z"/>
<path d="M3018 995 c-54 -30 -60 -136 -11 -175 52 -41 163 -13 163 41 0 32
-29 35 -56 5 -44 -47 -77 -26 -72 46 3 36 7 44 26 46 15 2 33 -5 47 -18 47
-44 76 0 30 45 -28 29 -84 33 -127 10z"/>
<path d="M3250 997 c-57 -29 -68 -120 -21 -168 64 -64 181 -21 181 66 0 43
-22 90 -49 105 -27 14 -81 12 -111 -3z m90 -58 c15 -27 12 -60 -7 -81 -21 -24
-39 -23 -57 4 -22 30 -20 64 4 88 22 22 45 18 60 -11z"/>
<path d="M3445 997 c-3 -7 -5 -54 -3 -103 3 -88 3 -89 28 -89 l25 0 0 100 c0
96 -1 100 -23 103 -12 2 -24 -3 -27 -11z"/>
<path d="M3538 994 c-2 -9 -2 -57 0 -106 3 -85 4 -89 25 -86 19 3 23 11 27 55
l5 53 40 -55 c28 -39 46 -55 63 -55 22 0 23 1 20 102 -3 91 -5 103 -22 106
-24 5 -36 -14 -36 -62 l0 -39 -41 52 c-41 51 -75 66 -81 35z"/>
<path d="M3902 998 c-13 -13 -17 -153 -6 -182 8 -22 121 -22 152 0 28 19 28
57 1 82 -17 17 -18 20 -5 25 24 9 19 53 -6 71 -27 19 -119 21 -136 4z m96 -40
c8 -8 9 -15 1 -25 -18 -21 -39 -15 -39 12 0 27 18 33 38 13z m7 -93 c0 -13 -8
-21 -22 -23 -19 -3 -23 1 -23 23 0 22 4 26 23 23 14 -2 22 -10 22 -23z"/>
<path d="M4143 998 c-56 -27 -66 -126 -18 -174 37 -37 107 -34 147 6 28 28 30
35 26 82 -4 40 -12 57 -32 75 -29 25 -84 30 -123 11z m85 -50 c34 -34 -7 -126
-46 -102 -43 27 -35 114 11 114 13 0 28 -5 35 -12z"/>
<path d="M4321 996 c-17 -20 -6 -36 24 -36 23 0 24 -3 27 -77 3 -76 4 -78 28
-78 24 0 25 2 28 77 3 75 3 77 30 80 19 2 27 9 27 23 0 18 -8 20 -76 23 -58 2
-79 -1 -88 -12z"/>
<path d="M5032 880 c0 -19 2 -27 5 -17 2 9 2 25 0 35 -3 9 -5 1 -5 -18z"/>
<path d="M973 865 c0 -22 2 -30 4 -17 2 12 2 30 0 40 -3 9 -5 -1 -4 -23z"/>
<path d="M5021 815 c-1 -11 -4 -31 -6 -45 l-6 -25 11 25 c6 13 9 33 7 45 -4
19 -4 19 -6 0z"/>
<path d="M981 794 c0 -11 3 -14 6 -6 3 7 2 16 -1 19 -3 4 -6 -2 -5 -13z"/>
<path d="M2825 770 c-13 -22 12 -31 76 -28 49 2 64 7 64 18 0 12 -15 16 -67
18 -41 2 -69 -1 -73 -8z"/>
<path d="M3735 770 c-13 -22 12 -31 76 -28 49 2 64 7 64 18 0 12 -15 16 -67
18 -41 2 -69 -1 -73 -8z"/>
<path d="M996 740 c20 -109 144 -259 264 -318 35 -18 70 -32 79 -32 9 1 -4 9
-29 19 -134 52 -243 164 -296 303 -16 41 -22 51 -18 28z"/>
<path d="M4975 671 c-41 -93 -146 -198 -246 -246 -40 -19 -68 -35 -60 -35 37
0 151 70 211 130 61 60 137 186 128 209 -2 5 -16 -21 -33 -58z"/>
<path d="M1368 383 c7 -3 16 -2 19 1 4 3 -2 6 -13 5 -11 0 -14 -3 -6 -6z"/>
<path d="M4628 383 c7 -3 16 -2 19 1 4 3 -2 6 -13 5 -11 0 -14 -3 -6 -6z"/>
<path d="M1408 373 c6 -2 18 -2 25 0 6 3 1 5 -13 5 -14 0 -19 -2 -12 -5z"/>
<path d="M4573 373 c9 -2 23 -2 30 0 6 3 -1 5 -18 5 -16 0 -22 -2 -12 -5z"/>
<path d="M1483 363 c9 -2 25 -2 35 0 9 3 1 5 -18 5 -19 0 -27 -2 -17 -5z"/>
<path d="M4488 363 c12 -2 30 -2 40 0 9 3 -1 5 -23 4 -22 0 -30 -2 -17 -4z"/>
<path d="M2317 353 c381 -2 1005 -2 1386 0 380 1 69 2 -693 2 -762 0 -1073 -1
-693 -2z"/>
</g>
</svg>
